<?xml version="1.0" encoding="UTF-8"?>
<svg width="957px" height="240px" viewBox="0 0 957 240" version="1.1" xmlns="http://www.w3.org/2000/svg" xmlns:xlink="http://www.w3.org/1999/xlink">
    <!-- Generator: Sketch 42 (36781) - http://www.bohemiancoding.com/sketch -->
    <title>shapes</title>
    <desc>Created with Sketch.</desc>
    <defs></defs>
    <g id="Boostrap3-grid-system-layouts" stroke="none" stroke-width="1" fill="none" fill-rule="evenodd">
        <g id="Heros" transform="translate(-355.000000, -5080.000000)">
            <g id="hero-6" transform="translate(100.000000, 4600.000000)">
                <g id="background">
                    <g id="shapes" transform="translate(255.000000, 480.000000)">
                        <polygon id="Combined-Shape" fill="#525BFF" points="957 143 933 143 933 127 917 127 917 103 925 103 925 119 941 119 941 135 957 135"></polygon>
                        <polygon id="Combined-Shape" fill="#33FFBE" points="85.5685425 212.284271 68.5979797 229.254834 57.2842712 217.941125 45.9705627 229.254834 29 212.284271 34.6568542 206.627417 45.9705627 217.941125 57.2842712 206.627417 68.5979797 217.941125 79.9116882 206.627417"></polygon>
                        <path d="M0,19 L29,0 L29,38 L0,19 Z M12,19 L22,25 L22,12 L12,19 Z" id="Rectangle-13" fill="#5462FF"></path>
                        <path d="M697,222.5 L732,199.568966 L732,245.431034 L697,222.5 Z M711.482759,222.5 L724.027465,229.719104 L724.027465,214.029449 L711.482759,222.5 Z" id="Rectangle-13" fill="#FEEA36" transform="translate(714.500000, 222.500000) rotate(-270.000000) translate(-714.500000, -222.500000) "></path>
                        <path d="M172,139 C181.941125,139 190,130.941125 190,121 C190,111.058875 181.941125,103 172,103 C162.058875,103 154,111.058875 154,121 C154,130.941125 162.058875,139 172,139 Z M172,131 C177.522847,131 182,126.522847 182,121 C182,115.477153 177.522847,111 172,111 C166.477153,111 162,115.477153 162,121 C162,126.522847 166.477153,131 172,131 Z" id="Oval-10" fill="#FEEA36"></path>
                        <path d="M829,36 C838.941125,36 847,27.9411255 847,18 C847,8.0588745 838.941125,0 829,0 C819.058875,0 811,8.0588745 811,18 C811,27.9411255 819.058875,36 829,36 Z M829,28 C834.522847,28 839,23.5228475 839,18 C839,12.4771525 834.522847,8 829,8 C823.477153,8 819,12.4771525 819,18 C819,23.5228475 823.477153,28 829,28 Z" id="Oval-10" fill="#45FCBB"></path>
                    </g>
                </g>
            </g>
        </g>
    </g>
</svg>