<?xml version="1.0" encoding="utf-8"?>
<!-- Generator: Adobe Illustrator 19.0.0, SVG Export Plug-In . SVG Version: 6.00 Build 0)  -->
<svg version="1.1" id="Layer_1" xmlns="http://www.w3.org/2000/svg" xmlns:xlink="http://www.w3.org/1999/xlink" x="0px" y="0px"
	 viewBox="0 0 20 20" enable-background="new 0 0 20 20" xml:space="preserve">
<g id="fb">
	<g id="XMLID_20_">
		<path id="XMLID_21_" fill="#4460A0" d="M17.117,2H2.883C2.395,2,2,2.395,2,2.883v14.234C2,17.604,2.395,18,2.883,18h7.663v-6.197
			H8.461V9.389h2.085V7.608c0-2.066,1.263-3.191,3.106-3.191c0.883,0,1.642,0.065,1.863,0.095v2.16h-1.279
			c-1.002,0-1.197,0.476-1.197,1.176v1.542h2.393l-0.312,2.414h-2.08V18h4.078C17.604,18,18,17.604,18,17.117V2.883
			C18,2.395,17.604,2,17.117,2z"/>
	</g>
</g>
</svg>
