<?xml version="1.0" encoding="utf-8"?>
<!-- Generator: Adobe Illustrator 19.0.0, SVG Export Plug-In . SVG Version: 6.00 Build 0)  -->
<svg version="1.1" id="Layer_1" xmlns="http://www.w3.org/2000/svg" xmlns:xlink="http://www.w3.org/1999/xlink" x="0px" y="0px"
	 viewBox="0 0 20 20" enable-background="new 0 0 20 20" xml:space="preserve">
<g id="XMLID_1_">
	<path id="XMLID_639_" fill="#DD2F73" d="M18.105,14.52c-0.01,0.277-0.055,0.547-0.173,0.801c-0.063-0.047-0.065-0.115-0.058-0.182
		c0.044-0.377-0.112-0.668-0.391-0.904c-0.121-0.102-0.2-0.228-0.264-0.37c-0.076-0.168-0.185-0.311-0.346-0.441
		c-0.052,0.087-0.012,0.189-0.055,0.267c-0.038,0.069-0.08,0.117-0.143,0.022c-0.067-0.27-0.048-0.54,0-0.809
		c0.045-0.134,0.006-0.28,0.052-0.414c0.012-0.029,0.031-0.052,0.056-0.069c0.284,0.111,0.458,0.36,0.677,0.549
		c0.216,0.187,0.365,0.442,0.562,0.651c0.13,0.137,0.159,0.301,0.106,0.481C18.116,14.24,18.152,14.382,18.105,14.52z"/>
	<path id="XMLID_638_" fill="#D92F7B" d="M18.221,12.734c-0.002,0.439,0.021,0.879-0.059,1.314
		c-0.009-0.011-0.019-0.022-0.028-0.033c-0.015-0.238-0.07-0.472-0.056-0.712c0.003-0.057-0.005-0.121-0.046-0.162
		c-0.313-0.305-0.585-0.649-0.896-0.955c-0.085-0.084-0.166-0.076-0.226,0.044c-0.033,0.067-0.032,0.217-0.177,0.102
		c-0.074-0.313-0.045-0.628-0.021-0.943c0.024-0.092,0.043-0.186,0.094-0.269c0.159-0.108,0.245,0.028,0.336,0.112
		c0.153,0.141,0.366,0.233,0.49,0.365c0.194,0.208,0.436,0.37,0.599,0.606c0.01,0.015,0.01,0.036,0.012,0.055
		C18.232,12.417,18.267,12.577,18.221,12.734z"/>
	<path id="XMLID_637_" fill="#FAA243" d="M3.537,17.326c-0.041-0.037-0.083-0.075-0.124-0.112c0.154-0.172,0.339-0.246,0.577-0.251
		c0.37-0.007,0.741-0.013,1.111-0.008c0.182,0.002,0.337-0.034,0.457-0.178c0.081-0.042,0.167-0.044,0.25-0.022
		c0.597,0.156,1.206,0.142,1.814,0.138c0.123-0.001,0.248-0.009,0.364,0.047c0.093,0.065,0.064,0.201,0.155,0.268
		c0.049,0.087,0.085,0.173-0.016,0.251c-0.263,0.01-0.525,0.024-0.786-0.03c-0.983-0.168-1.975-0.148-2.966-0.133
		c-0.087,0.001-0.174,0.017-0.248,0.065C3.92,17.493,3.727,17.452,3.537,17.326z"/>
	<path id="XMLID_636_" fill="#DF316E" d="M16.726,13.756c0.112-0.142,0.004-0.317,0.072-0.47c0.102,0.001,0.158,0.083,0.196,0.147
		c0.282,0.474,0.732,0.827,0.942,1.356c0.078,0.196-0.049,0.355-0.004,0.53c-0.03,0.178-0.079,0.349-0.178,0.502
		c-0.198-0.324-0.337-0.678-0.532-1.006c-0.136-0.229-0.429-0.326-0.479-0.614c-0.024,0.059-0.044,0.13-0.117,0.038
		C16.587,14.064,16.608,13.9,16.726,13.756z"/>
	<path id="XMLID_635_" fill="#BE319C" d="M17.937,5.411c0.104,0.198,0.125,0.416,0.152,0.633c-0.362-0.211-0.759-0.252-1.168-0.253
		c-0.152,0-0.244-0.234-0.435-0.129C16.244,5.457,16.171,5.15,16.02,4.89c-0.039-0.172,0.03-0.216,0.198-0.196
		c0.505,0.06,0.944,0.314,1.418,0.464C17.762,5.197,17.853,5.307,17.937,5.411z"/>
	<path id="XMLID_634_" fill="#B431A3" d="M17.287,4.091c0.01,0.016,0.017,0.034,0.019,0.053c-0.138,0.222-0.346,0.281-0.588,0.238
		c-0.121-0.022-0.241-0.046-0.365-0.034c-0.3-0.004-0.601,0.012-0.901-0.013c-0.298-0.106-0.599-0.207-0.853-0.408
		c-0.058-0.094-0.088-0.187,0.012-0.275c0.359-0.096,0.721-0.051,1.083-0.032C16.221,3.791,16.78,3.853,17.287,4.091z"/>
	<path id="XMLID_633_" fill="#FBA948" d="M4.099,17.735c-0.073-0.014-0.132-0.05-0.171-0.115c0.022-0.046,0.06-0.092,0.103-0.092
		c0.396,0.001,0.761-0.173,1.163-0.18c0.319-0.005,0.643-0.046,0.966-0.048c0.164-0.001,0.324,0.008,0.466,0.107
		c0.165,0.115,0.334,0.003,0.501,0.001c0.071,0.01,0.104,0.065,0.139,0.118c0.028,0.096,0.153,0.178,0.045,0.295
		c-0.109,0.053-0.226,0.035-0.341,0.037c-0.775,0.024-1.55,0.002-2.324,0.018C4.446,17.879,4.272,17.818,4.099,17.735z"/>
	<path id="XMLID_632_" fill="#BA329F" d="M15.402,4.263c0.324,0,0.648,0.001,0.972,0.001c0.324,0.155,0.683,0.229,0.991,0.423
		c0.095,0.06,0.178-0.063,0.273-0.02c0.143,0.231,0.256,0.474,0.299,0.744c-0.365-0.254-0.818-0.309-1.198-0.54
		c-0.172-0.105-0.421-0.017-0.628-0.128c-0.073-0.039,0,0.101-0.025,0.153C15.781,4.768,15.563,4.547,15.402,4.263z"/>
	<path id="XMLID_631_" fill="#C33098" d="M16.487,5.649c0.029-0.158,0.19-0.158,0.232-0.095c0.193,0.288,0.493,0.166,0.732,0.189
		c0.269,0.025,0.463,0.119,0.637,0.301c0.124,0.551,0.136,1.11,0.126,1.671c-0.156-0.027-0.115-0.156-0.134-0.255
		c0.007-0.725-0.108-0.889-0.796-1.127c-0.091-0.031-0.182-0.065-0.264-0.112c-0.149-0.085-0.27-0.05-0.38,0.068
		C16.458,6.108,16.429,5.889,16.487,5.649z"/>
	<path id="XMLID_630_" fill="#E13569" d="M16.673,14.274c0.071-0.105,0.069-0.104,0.119-0.037c0.195,0.261,0.493,0.434,0.621,0.755
		c0.111,0.278,0.319,0.515,0.341,0.83c-0.067,0.191-0.121,0.389-0.286,0.526c-0.109-0.041-0.163-0.122-0.177-0.235
		c-0.044-0.365-0.15-0.689-0.475-0.92c-0.114-0.081-0.131-0.281-0.307-0.322C16.479,14.649,16.51,14.444,16.673,14.274z"/>
	<path id="XMLID_629_" fill="#AC34A7" d="M16.111,2.991c0.21,0.101,0.395,0.237,0.552,0.409c-0.014,0.01-0.029,0.02-0.043,0.03
		c-0.914,0.037-1.827-0.004-2.741-0.009c-0.119-0.013-0.234-0.036-0.326-0.12c-0.013-0.203,0.147-0.198,0.27-0.201
		c0.176-0.004,0.334-0.051,0.487-0.131c0.357,0.021,0.697-0.106,1.052-0.118C15.627,2.843,15.875,2.87,16.111,2.991z"/>
	<path id="XMLID_628_" fill="#FCAF4C" d="M4.099,17.735c0.421,0.105,0.848,0.037,1.272,0.046c0.541,0.012,1.083,0.003,1.625,0.003
		c0.077,0.048,0.117,0.107,0.059,0.196c-0.138,0.116-0.277,0.232-0.472,0.234c-0.539,0-1.08,0.049-1.612-0.079
		C4.65,18.067,4.361,17.93,4.099,17.735z"/>
	<path id="XMLID_627_" fill="#A338AC" d="M13.798,2.303c0.494,0.022,0.98,0.084,1.438,0.287c-0.342,0.099-0.645,0.315-1.049,0.21
		c-0.221-0.057-0.484,0.037-0.73,0.047c-0.326-0.013-0.656,0.06-0.977-0.047C12.417,2.753,12.41,2.69,12.43,2.62
		c0.124-0.159,0.372-0.057,0.488-0.233c0.158-0.069,0.342-0.012,0.495-0.105C13.542,2.288,13.672,2.257,13.798,2.303z"/>
	<path id="XMLID_626_" fill="#FBB454" d="M4.971,18.134c0.56-0.002,1.12-0.003,1.68-0.005c0.134,0.133,0.306,0.075,0.462,0.085
		c0.327,0.022,0.654-0.034,0.972,0.142c0.184,0.102,0.431,0.025,0.649,0.035c0.28-0.017,0.559,0.005,0.838-0.002
		c0.192-0.01,0.383,0.008,0.574,0.003c0.121-0.008,0.241-0.002,0.362-0.001c0.188-0.008,0.377-0.003,0.565,0
		c0.17-0.006,0.34-0.004,0.509,0.001c0.101-0.004,0.202-0.002,0.303,0c0.151-0.005,0.303-0.005,0.454,0.005
		c0.07,0.006,0.137,0.021,0.179,0.086c-0.087,0.057-0.186,0.035-0.279,0.035c-1.424,0.001-2.847,0.004-4.271-0.003
		c-0.4-0.002-0.801-0.037-1.201-0.056c-0.133-0.045-0.276,0.018-0.407-0.039C5.884,18.391,5.412,18.337,4.971,18.134z"/>
	<path id="XMLID_625_" fill="#F7923A" d="M2.909,16.635c-0.152-0.17-0.277-0.356-0.347-0.576c0.335-0.015,0.673,0.034,0.99-0.156
		c0.159-0.095,0.379-0.012,0.558-0.095c0.187,0.004,0.255,0.145,0.326,0.283c0.145,0.272,0.1,0.394-0.201,0.407
		c-0.309,0.014-0.6,0.062-0.886,0.18C3.205,16.737,3.048,16.723,2.909,16.635z"/>
	<path id="XMLID_624_" fill="#8B3CA9" d="M2.586,4.609c0.092-0.243,0.238-0.45,0.414-0.639C3.424,3.761,3.844,3.533,4.28,3.363
		C4.54,3.262,4.866,3.219,5.172,3.27c0.062,0.006,0.121,0.02,0.169,0.063c0.059,0.122,0.016,0.227-0.107,0.232
		C4.962,3.577,4.756,3.784,4.481,3.785c-0.157,0-0.279,0.105-0.382,0.221C3.87,4.181,3.586,4.229,3.324,4.325
		C3.181,4.378,3.044,4.401,2.949,4.54C2.859,4.67,2.733,4.723,2.586,4.609z"/>
	<path id="XMLID_623_" fill="#FBA544" d="M7.169,17.439c-0.236,0.098-0.424,0.096-0.701-0.004c-0.337-0.121-0.788-0.19-1.156,0.068
		c-0.038,0.027-0.076,0.035-0.099,0.005c-0.156-0.199-0.29-0.151-0.445,0.011c-0.045,0.047-0.162,0.031-0.247,0.033
		c-0.2,0.003-0.402-0.013-0.593,0.068c-0.154-0.066-0.278-0.172-0.391-0.294c0.215,0.063,0.42,0.103,0.609-0.087
		c0.046-0.046,0.163-0.03,0.248-0.03c0.657-0.002,1.315,0.01,1.971-0.007c0.237-0.006,0.425,0.141,0.657,0.147
		c0.101,0.003,0.237-0.163,0.32,0.031C7.297,17.439,7.235,17.447,7.169,17.439z"/>
	<path id="XMLID_622_" fill="#863FAD" d="M5.155,3.343C4.942,3.38,4.695,3.244,4.521,3.473C3.923,3.36,3.573,4.006,2.999,3.97
		C3.143,3.745,3.327,3.557,3.543,3.4C3.853,3.27,4.15,3.129,4.495,3.064c0.279-0.053,0.571-0.173,0.839-0.305
		c0.112-0.055,0.204-0.094,0.318-0.032C5.729,2.789,5.791,2.867,5.857,2.94C5.748,3.116,5.55,3.157,5.384,3.244
		C5.312,3.282,5.224,3.291,5.155,3.343z"/>
	<path id="XMLID_621_" fill="#F99D3F" d="M5.558,16.803c0.011,0.171-0.073,0.235-0.24,0.235c-0.499-0.002-0.999,0.013-1.498,0
		c-0.176-0.004-0.213,0.259-0.407,0.176c-0.111-0.079-0.203-0.175-0.273-0.293c0.48-0.167,0.964-0.32,1.48-0.319
		c0.102,0,0.183-0.037,0.254-0.106C5.14,16.516,5.378,16.594,5.558,16.803z"/>
	<path id="XMLID_620_" fill="#CA2F91" d="M18.155,7.428c0.017,0.097-0.036,0.207,0.059,0.288c0.003,0.094,0.006,0.188,0.008,0.282
		c-0.011,0.01-0.021,0.02-0.032,0.029c-0.151,0.034-0.282-0.019-0.405-0.099c-0.335-0.219-0.67-0.439-1.032-0.611
		c-0.06-0.091-0.052-0.201-0.087-0.299c-0.013-0.077-0.014-0.152,0.034-0.22c0.024-0.015,0.053-0.034,0.078-0.024
		C17.255,6.956,17.789,7.017,18.155,7.428z"/>
	<path id="XMLID_619_" fill="#E33665" d="M16.544,14.907c0.12-0.149,0.243-0.101,0.242,0.054c-0.001,0.183,0.118,0.193,0.214,0.276
		c0.22,0.189,0.305,0.467,0.344,0.744c0.019,0.136,0.04,0.258,0.123,0.367c-0.068,0.089-0.059,0.224-0.171,0.286
		c-0.043,0.033-0.102,0.041-0.126-0.003c-0.277-0.5-0.608-0.974-0.748-1.54C16.434,15.011,16.46,14.939,16.544,14.907z"/>
	<path id="XMLID_618_" fill="#A53796" d="M2.009,7.307c-0.01-0.211-0.043-0.423,0.033-0.629c0.041-0.137,0.095-0.254,0.262-0.28
		c0.2-0.031,0.325-0.183,0.463-0.311c0.025-0.017,0.051-0.029,0.08-0.038c0.146-0.031,0.301-0.017,0.432-0.117
		c0.089-0.068,0.199-0.137,0.311-0.061c0.097,0.065,0.03,0.175,0.034,0.265C3.625,6.182,3.622,6.23,3.622,6.277
		C3.62,6.353,3.613,6.428,3.571,6.494c-0.125,0.083-0.273,0.072-0.41,0.079C2.958,6.582,2.767,6.647,2.65,6.788
		C2.468,7.009,2.19,7.096,2.009,7.307z"/>
	<path id="XMLID_617_" fill="#F58938" d="M4.12,15.827c-0.01,0.026-0.022,0.076-0.031,0.076c-0.318-0.015-0.591,0.163-0.893,0.212
		c-0.137,0.022-0.278-0.036-0.414,0.063c-0.116,0.085-0.123-0.121-0.222-0.119c-0.086-0.122-0.159-0.25-0.174-0.403
		c0.503-0.006,0.978-0.216,1.483-0.205C4.048,15.514,4.141,15.632,4.12,15.827z"/>
	<path id="XMLID_616_" fill="#8F3BA6" d="M2.586,4.609C2.742,4.617,2.887,4.62,2.934,4.413c0.021-0.093,0.113-0.148,0.22-0.149
		C3.487,4.263,3.752,4.05,4.062,3.976c0.293-0.173,0.6-0.187,0.916-0.073C4.952,4.176,4.73,4.139,4.553,4.172
		C4.319,4.219,4.079,4.294,3.9,4.43C3.601,4.656,3.227,4.685,2.916,4.876C2.775,4.962,2.565,4.943,2.428,5.08
		C2.415,5.075,2.401,5.07,2.387,5.065C2.408,4.893,2.496,4.751,2.586,4.609z"/>
	<path id="XMLID_615_" fill="#F48338" d="M3.893,15.475c-0.132,0.136-0.308,0.063-0.459,0.081c-0.287,0.036-0.55,0.182-0.848,0.168
		c-0.084-0.004-0.138-0.026-0.197-0.068c-0.07-0.104-0.108-0.219-0.118-0.344c0.498-0.024,0.923-0.285,1.386-0.422
		C3.864,15.033,3.921,15.237,3.893,15.475z"/>
	<path id="XMLID_614_" fill="#A836AA" d="M13.497,2.768c0.313,0.003,0.624-0.141,0.941-0.006c0.062,0.026,0.187,0.023,0.219-0.017
		c0.16-0.203,0.379-0.136,0.579-0.155c0.321,0.069,0.611,0.207,0.875,0.4c-0.478-0.1-0.952-0.077-1.423,0.044
		c-0.133,0.034-0.262,0.033-0.384-0.036c-0.271,0.038-0.542,0.067-0.807-0.039C13.445,2.895,13.45,2.831,13.497,2.768z"/>
	<path id="XMLID_613_" fill="#8241B0" d="M5.673,2.768c-0.127-0.01-0.261-0.056-0.334,0.115C5.312,2.948,5.225,2.943,5.158,2.94
		C4.98,2.931,4.815,2.945,4.704,3.116c-0.021,0.032-0.087,0.057-0.126,0.05C4.198,3.098,3.903,3.394,3.543,3.4
		c0.28-0.281,0.602-0.499,0.977-0.633C4.61,2.715,4.73,2.731,4.808,2.647L4.805,2.649C4.919,2.603,5.058,2.633,5.152,2.53
		L5.149,2.533C5.459,2.51,5.77,2.457,6.072,2.581C6.042,2.848,5.964,2.885,5.673,2.768z"/>
	<path id="XMLID_612_" fill="#AA3792" d="M2.009,7.307C2.04,7.13,2.101,7.036,2.32,6.995c0.172-0.032,0.255-0.293,0.454-0.393
		c0.25-0.125,0.495-0.125,0.754-0.095C3.651,6.627,3.571,6.74,3.518,6.853C3.344,7.034,3.136,7.099,2.881,7.112
		C2.573,7.127,2.36,7.358,2.138,7.548c-0.047,0.04-0.057,0.127-0.146,0.11C1.997,7.541,2.003,7.424,2.009,7.307z"/>
	<path id="XMLID_611_" fill="#E55F4B" d="M2.002,13.182c-0.043-0.15-0.027-0.302-0.017-0.454c0.009-0.01,0.019-0.02,0.027-0.031
		c0.355-0.176,0.733-0.286,1.12-0.359c0.087-0.017,0.139-0.044,0.162-0.129c0.019-0.071,0.016-0.155,0.099-0.195
		c0.033,0.002,0.058,0.017,0.074,0.046c0.061,0.284,0.15,0.565,0.06,0.858c-0.014,0.029-0.038,0.046-0.07,0.051
		c-0.198-0.137-0.382-0.112-0.608-0.027c-0.251,0.095-0.49,0.241-0.767,0.267C2.052,13.21,2.025,13.201,2.002,13.182z"/>
	<path id="XMLID_610_" fill="#EA4954" d="M16.376,17.555c-0.1,0.102-0.215,0.182-0.351,0.228c-0.087,0.055-0.18,0.047-0.213-0.048
		c-0.119-0.343-0.419-0.55-0.608-0.84c-0.073-0.112-0.115-0.216-0.039-0.339c0.087-0.108,0.183-0.198,0.336-0.189
		c0.077,0.019,0.143,0.061,0.176,0.131C15.861,16.883,16.154,17.196,16.376,17.555z"/>
	<path id="XMLID_609_" fill="#E63E5D" d="M17.054,16.919c-0.054,0.131-0.156,0.216-0.269,0.293c-0.296,0.07-0.31-0.222-0.357-0.351
		c-0.093-0.257-0.233-0.478-0.364-0.709c-0.06-0.105-0.08-0.214-0.04-0.331c0.045-0.114,0.092-0.228,0.232-0.257
		c0.092,0.002,0.18,0.036,0.205,0.123C16.589,16.131,16.904,16.485,17.054,16.919z"/>
	<path id="XMLID_608_" fill="#F8973C" d="M4.868,16.521c0.057,0.183-0.097,0.166-0.181,0.163C4.233,16.67,3.8,16.756,3.388,16.943
		c-0.095,0.043-0.165-0.029-0.248-0.021c-0.109-0.07-0.171-0.178-0.231-0.287c0.239,0.009,0.462-0.021,0.687-0.129
		c0.15-0.072,0.33-0.109,0.519-0.066c0.105,0.024,0.265-0.014,0.342-0.086c0.1-0.094-0.115-0.148-0.098-0.258
		C4.642,16.103,4.73,16.341,4.868,16.521z"/>
	<path id="XMLID_607_" fill="#F27D38" d="M3.659,14.922c-0.046,0.199-0.336,0.002-0.367,0.227c-0.352-0.019-0.64,0.366-1.022,0.163
		c-0.074-0.124-0.104-0.26-0.104-0.404c0.374-0.045,0.731-0.146,1.078-0.294c0.117-0.05,0.245-0.096,0.38-0.045
		C3.694,14.682,3.683,14.801,3.659,14.922z"/>
	<path id="XMLID_606_" fill="#EB6B42" d="M2.002,13.182c0.015,0,0.03-0.001,0.046,0c0.158,0.275,0.417,0.355,0.736,0.211
		c0.122-0.055,0.238-0.12,0.374-0.125c0.206-0.008,0.165-0.235,0.287-0.316l0.012,0c0.212,0.224,0.101,0.486,0.086,0.736
		c-0.124,0.122-0.288,0.052-0.431,0.076c-0.295,0.048-0.549,0.173-0.798,0.323c-0.097,0.036-0.188,0.026-0.27-0.038
		C1.964,13.762,1.996,13.472,2.002,13.182z"/>
	<path id="XMLID_605_" fill="#CB416F" d="M1.957,10.083c-0.005-0.041-0.01-0.082-0.015-0.124c0.206-0.26,0.549-0.233,0.813-0.38
		c0.149-0.083,0.349-0.076,0.51-0.166c0.06-0.034,0.13-0.022,0.186,0.028c0.065,0.102,0.055,0.211,0.035,0.322
		c-0.051,0.229-0.187,0.343-0.427,0.312c-0.283-0.036-0.507,0.136-0.747,0.231C1.971,10.442,1.972,10.46,1.957,10.083z"/>
	<path id="XMLID_604_" fill="#E43A62" d="M17.054,16.919c-0.161-0.113-0.28-0.252-0.279-0.463c0-0.073-0.055-0.112-0.095-0.164
		c-0.117-0.152-0.274-0.285-0.252-0.51c0.012-0.121-0.099-0.146-0.181-0.188c-0.024-0.221,0.044-0.399,0.241-0.517
		c-0.006,0.19,0.083,0.33,0.193,0.483c0.14,0.197,0.23,0.432,0.324,0.658c0.068,0.163,0.136,0.318,0.292,0.416
		C17.251,16.759,17.149,16.836,17.054,16.919z"/>
	<path id="XMLID_603_" fill="#B93A85" d="M1.958,9.835C1.96,9.221,1.917,8.608,1.981,7.995c0.011,0.008,0.022,0.015,0.033,0.023
		c0.069,0.099,0.03,0.222,0.098,0.411c0.225-0.523,0.77-0.424,1.107-0.707c0.068-0.057,0.142-0.085,0.127-0.189
		c0.031-0.119-0.06-0.299,0.162-0.321c0.103,0.353,0.102,0.706-0.001,1.059C3.122,8.079,3.115,8.208,2.739,8.412
		C2.543,8.519,2.364,8.664,2.164,8.768C2.08,8.811,2.07,8.879,2.07,8.958c0.002,0.12,0.002,0.239,0,0.358
		c0.002,0.094,0.002,0.187-0.002,0.281C2.052,9.686,2.08,9.795,1.958,9.835z"/>
	<path id="XMLID_602_" fill="#DC5159" d="M1.985,12.727c-0.058-0.553-0.044-1.106-0.009-1.659c0.028,0.013,0.048,0.033,0.06,0.061
		c0.026,0.068,0.027,0.139,0.03,0.21c0,0.15,0.094,0.13,0.195,0.113c0.328-0.055,0.599-0.274,0.932-0.314
		c0.095-0.011,0.192-0.109,0.281,0.012c0.053,0.166,0.054,0.332-0.001,0.497c-0.005,0.007-0.011,0.015-0.016,0.023
		C3.16,11.45,2.923,11.694,2.666,11.77c-0.146,0.08-0.287,0.173-0.465,0.167c-0.093-0.003-0.135,0.047-0.128,0.14
		c-0.003,0.121,0.001,0.242-0.002,0.364c-0.001,0.099,0.004,0.199-0.074,0.277L1.985,12.727z"/>
	<path id="XMLID_601_" fill="#E84557" d="M16.376,17.555c-0.341-0.198-0.461-0.574-0.681-0.867c-0.067-0.09-0.122-0.207-0.193-0.306
		c0.061-0.185,0.141-0.343,0.384-0.261c0.295,0.319,0.44,0.717,0.585,1.116c0.036,0.099,0.007,0.186-0.035,0.273
		C16.416,17.525,16.396,17.54,16.376,17.555z"/>
	<path id="XMLID_600_" fill="#9B399D" d="M2.11,6.105C2.11,5.951,2.14,5.804,2.202,5.663c0.364-0.002,0.695-0.08,0.901-0.416
		c0.082-0.134,0.268-0.1,0.347-0.232c0.02-0.02,0.042-0.036,0.068-0.049C3.659,4.93,3.765,4.821,3.901,4.777
		c0.107-0.035,0.233-0.084,0.25,0.106C4.052,5.046,4.036,5.26,3.857,5.376C3.395,5.539,2.945,5.731,2.515,5.967
		C2.391,6.035,2.287,6.183,2.11,6.105z"/>
	<path id="XMLID_599_" fill="#EC504F" d="M15.221,16.569c-0.122,0.262,0.111,0.425,0.237,0.528c0.202,0.165,0.297,0.369,0.394,0.582
		c0.042,0.092,0.095,0.104,0.173,0.104c-0.089,0.105-0.225,0.12-0.339,0.175c-0.054,0.036-0.112,0.034-0.173,0.022
		c-0.151-0.117-0.248-0.266-0.247-0.462c0.001-0.188-0.136-0.284-0.246-0.402c-0.129-0.138-0.25-0.28-0.079-0.47
		C15.024,16.581,15.102,16.502,15.221,16.569z"/>
	<path id="XMLID_598_" fill="#F16146" d="M14.806,18.261c-0.065,0.045-0.138,0.054-0.214,0.046c-0.122-0.093-0.2-0.214-0.277-0.348
		c-0.165-0.285-0.405-0.508-0.689-0.68c-0.118-0.026-0.191-0.09-0.182-0.221c0.005-0.031,0.016-0.06,0.034-0.086
		c0.103-0.08,0.227-0.079,0.348-0.086c0.319,0.035,0.441,0.303,0.596,0.522c0.087,0.123,0.162,0.251,0.272,0.358
		C14.836,17.903,14.868,18.073,14.806,18.261z"/>
	<path id="XMLID_597_" fill="#EF5D49" d="M14.806,18.261c-0.06-0.491-0.48-0.765-0.7-1.16c-0.054-0.098-0.165-0.119-0.264-0.15
		c0.22-0.177,0.483-0.184,0.746-0.192c0.026,0.011,0.069,0.04,0.063,0.048c-0.122,0.171-0.008,0.274,0.104,0.38
		c0.037,0.035,0.045,0.082,0.037,0.132c-0.064,0.1-0.065,0.186,0.025,0.279c0.093,0.095,0.177,0.2,0.264,0.301
		c0.073,0.086,0.116,0.177,0.027,0.28C15.015,18.236,14.917,18.27,14.806,18.261z"/>
	<path id="XMLID_596_" fill="#97399F" d="M3.487,5.012c0,0.009,0,0.019-0.001,0.028C3.484,5.088,3.485,5.145,3.435,5.164
		C3.043,5.318,2.811,5.769,2.33,5.759c-0.071-0.001-0.096-0.05-0.128-0.096c0.012-0.215,0.091-0.409,0.186-0.598
		c0,0,0.01,0.007,0.01,0.007c0.171,0.089,0.33,0.034,0.491-0.034C3.084,4.954,3.283,4.913,3.487,5.012z"/>
	<path id="XMLID_595_" fill="#F78442" d="M12.519,18.484c-0.058-0.006-0.115-0.013-0.173-0.019
		c-0.285-0.184-0.476-0.468-0.727-0.689c-0.033-0.083-0.082-0.166-0.003-0.251c0.117-0.062,0.238-0.054,0.36-0.017
		c0.321,0.101,0.514,0.347,0.688,0.612c0.096,0.145,0.208,0.25,0.398,0.218c0.127,0.024,0.286-0.055,0.368,0.115
		C13.126,18.463,12.822,18.474,12.519,18.484z"/>
	<path id="XMLID_594_" fill="#C73E74" d="M1.958,9.835c0.014-0.074,0.027-0.147,0.041-0.221c0.126-0.15,0.276-0.238,0.482-0.258
		C2.716,9.333,2.892,9.14,3.125,9.084c0.159-0.038,0.279-0.039,0.347,0.133c0.021,0.082,0.024,0.161-0.046,0.226
		c-0.26,0.17-0.585,0.14-0.856,0.295c-0.19,0.108-0.418,0.151-0.629,0.223C1.947,9.918,1.953,9.876,1.958,9.835z"/>
	<path id="XMLID_593_" fill="#B2378B" d="M3.47,7.198c-0.081,0.126-0.019,0.27-0.049,0.402C3.043,7.735,2.67,7.883,2.293,8.019
		C2.198,8.054,2.093,8.082,1.996,8.009c0,0-0.015-0.013-0.015-0.013c0.003-0.074,0.007-0.148,0.01-0.222
		C2.384,7.531,2.788,7.307,3.21,7.119C3.308,7.075,3.361,6.9,3.516,6.991C3.546,7.07,3.553,7.144,3.47,7.198z"/>
	<path id="XMLID_592_" fill="#B332A5" d="M17.287,4.091c-0.392-0.007-0.744-0.196-1.125-0.257c-0.144-0.023-0.281-0.096-0.421-0.146
		c0.159-0.214,0.385-0.247,0.629-0.231c0.099,0.007,0.207,0.056,0.286-0.051c0,0,0.007-0.006,0.007-0.006
		C16.911,3.594,17.139,3.806,17.287,4.091z"/>
	<path id="XMLID_591_" fill="#AE368E" d="M3.479,6.968C3.392,7.234,3.081,7.149,2.93,7.318c-0.221,0.246-0.569,0.266-0.826,0.45
		C2.078,7.787,2.029,7.772,1.991,7.773c0-0.038,0-0.077,0.001-0.115c0.247-0.335,0.516-0.663,0.98-0.622
		c0.223,0.02,0.326-0.177,0.514-0.183C3.516,6.893,3.516,6.931,3.479,6.968z"/>
	<path id="XMLID_590_" fill="#CF446A" d="M1.957,10.083c0.013,0.064,0.025,0.128,0.04,0.192c0.016,0.07,0.117,0.097,0.121,0.079
		c0.055-0.265,0.328-0.086,0.428-0.213C2.69,9.957,2.904,9.972,3.065,10c0.22,0.038,0.289-0.062,0.363-0.212
		c0.114,0.131,0.088,0.277,0.045,0.424c-0.014,0.029-0.037,0.05-0.067,0.061c-0.311-0.038-0.556,0.147-0.825,0.249
		c-0.191,0.073-0.37,0.178-0.578,0.206c-0.043-0.032-0.04-0.075-0.028-0.12C1.93,10.434,1.954,10.258,1.957,10.083z"/>
	<path id="XMLID_589_" fill="#9E389B" d="M2.11,6.105C2.401,5.942,2.68,5.75,2.986,5.626c0.268-0.109,0.545-0.195,0.799-0.339
		C3.818,5.268,3.83,5.332,3.837,5.368c0.066,0.131,0,0.227-0.083,0.319c-0.337,0.098-0.67,0.206-0.957,0.418
		C2.533,6.179,2.284,6.286,2.061,6.447C2.038,6.327,2.077,6.216,2.11,6.105z"/>
	<path id="XMLID_588_" fill="#E7425A" d="M16.436,17.51c-0.106-0.391-0.168-0.801-0.452-1.117c-0.08-0.089-0.141-0.176-0.139-0.297
		c-0.022-0.181,0.062-0.266,0.24-0.267c-0.092,0.209,0.058,0.359,0.165,0.478c0.192,0.215,0.185,0.508,0.344,0.733
		c0.056,0.079,0.078,0.165,0.189,0.173C16.692,17.338,16.577,17.439,16.436,17.51z"/>
	<path id="XMLID_587_" fill="#F0773A" d="M3.583,14.562c-0.096,0.172-0.298,0.114-0.437,0.163c-0.307,0.108-0.614,0.351-0.98,0.183
		c-0.038-0.071-0.059-0.147-0.049-0.228c0.213-0.016,0.392-0.123,0.57-0.224c0.154-0.088,0.315-0.157,0.483-0.1
		c0.158,0.054,0.255-0.106,0.396-0.075C3.619,14.373,3.686,14.463,3.583,14.562z"/>
	<path id="XMLID_586_" fill="#F47A45" d="M13.43,18.453c-0.125-0.073-0.263-0.019-0.394-0.038c-0.189-0.15-0.537-0.78-0.534-0.967
		c0.279-0.053,0.436,0.137,0.605,0.303c0.085,0.102,0.17,0.206,0.242,0.318c0.121,0.189,0.28,0.276,0.505,0.219
		c0.112,0.002,0.224-0.009,0.334,0.024c0.027,0.012,0.048,0.031,0.063,0.056C13.981,18.433,13.709,18.476,13.43,18.453z"/>
	<path id="XMLID_585_" fill="#B832A3" d="M17.638,4.667c-0.135,0.141-0.245,0.158-0.424,0.022c-0.17-0.129-0.4-0.194-0.613-0.244
		c-0.123-0.029-0.183-0.08-0.227-0.181c0.057,0.001,0.121-0.016,0.169,0.005c0.283,0.121,0.526,0.021,0.764-0.124
		C17.486,4.275,17.578,4.461,17.638,4.667z"/>
	<path id="XMLID_584_" fill="#D44963" d="M1.975,10.608c0.008,0.033,0.016,0.066,0.024,0.1c0.244,0.065,0.444-0.076,0.655-0.153
		c0.097-0.036,0.188-0.1,0.294-0.088c0.195,0.022,0.322-0.071,0.425-0.219c0.018,0,0.037,0,0.055,0
		c0.117,0.137,0.093,0.287,0.038,0.439c-0.299,0.139-0.608,0.27-0.933,0.315C2.35,11.027,2.205,11.23,1.999,11.11
		c-0.005-0.016-0.013-0.03-0.023-0.042C1.939,10.915,1.935,10.761,1.975,10.608z"/>
	<path id="XMLID_583_" fill="#F0743B" d="M3.533,14.274c-0.051,0.127-0.135,0.222-0.279,0.168c-0.359-0.136-0.599,0.132-0.863,0.269
		c-0.136,0.07-0.191,0.079-0.274-0.03c-0.006-0.057-0.013-0.115-0.019-0.172c0.026-0.086,0.099-0.122,0.173-0.128
		c0.388-0.036,0.695-0.295,1.063-0.382c0.064-0.015,0.126-0.013,0.186,0.018C3.609,14.098,3.624,14.183,3.533,14.274z"/>
	<path id="XMLID_582_" fill="#F16646" d="M13.67,17.208c0.247,0.001,0.28,0.268,0.451,0.382c0.223,0.15,0.37,0.439,0.471,0.717
		c-0.106,0.065-0.224,0.056-0.341,0.06c0,0-0.013-0.015-0.013-0.015c-0.242-0.183-0.363-0.447-0.482-0.713
		C13.697,17.502,13.534,17.385,13.67,17.208z"/>
	<path id="XMLID_581_" fill="#CE318D" d="M18.221,12.734c-0.005-0.178-0.011-0.357-0.016-0.535
		c-0.121-0.277-0.073-0.568-0.074-0.856c-0.006-0.285-0.011-0.57,0-0.855c-0.007-0.257-0.003-0.515-0.003-0.772
		c0.009-0.112,0.002-0.224,0.008-0.336c0.007-0.145-0.043-0.245-0.174-0.322c-0.122-0.072-0.281-0.138-0.229-0.337
		c0.128-0.121,0.25,0.028,0.383,0.009c0.081-0.233-0.053-0.498,0.094-0.722c0,0,0.014-0.011,0.014-0.011
		c0.071,0.359,0.026,0.721,0.028,1.081c0.007,1.145,0.003,2.289,0.003,3.434C18.254,12.587,18.269,12.666,18.221,12.734z"/>
	<path id="XMLID_580_" fill="#994BB2" d="M13.798,2.303c-0.138,0.003-0.277,0.006-0.415,0.009c-0.264,0.089-0.537,0.061-0.808,0.068
		c-0.066-0.006-0.129-0.026-0.192-0.043c-0.08-0.009-0.161-0.01-0.241-0.007c-0.134,0.007-0.268,0.004-0.403,0.002
		c-0.412,0.004-0.825,0.016-1.237,0.002C9.97,2.336,9.439,2.348,8.908,2.34c-0.38-0.033-0.764,0.042-1.144-0.03
		C7.729,2.296,7.7,2.274,7.677,2.243c0.097-0.059,0.205-0.036,0.308-0.036c1.416-0.001,2.831-0.015,4.246,0.007
		C12.753,2.221,13.28,2.205,13.798,2.303z"/>
	<path id="XMLID_579_" fill="#EE713D" d="M3.314,14.044c-0.292,0.065-0.495,0.331-0.812,0.352c-0.137,0.009-0.27,0.073-0.404,0.112
		c-0.072-0.147-0.052-0.305-0.054-0.46c0.097-0.001,0.195-0.002,0.292-0.003C2.662,13.913,2.988,13.897,3.314,14.044z"/>
	<path id="XMLID_578_" fill="#8346B3" d="M6.076,2.595c-0.31-0.002-0.622,0.022-0.926-0.063c0.404-0.162,0.828-0.22,1.26-0.23
		c0.187-0.047,0.377-0.016,0.566-0.018c0.072,0.074,0.008,0.147-0.041,0.154C6.647,2.483,6.375,2.616,6.076,2.595z"/>
	<path id="XMLID_577_" fill="#EF5A4D" d="M15.108,18.179c0.02-0.291-0.236-0.426-0.391-0.58c-0.181-0.179-0.053-0.199,0.046-0.276
		c0.283,0.175,0.519,0.391,0.637,0.713c0,0.013,0,0.027,0,0.04C15.312,18.137,15.215,18.173,15.108,18.179z"/>
	<path id="XMLID_576_" fill="#A13898" d="M2.061,6.447c0.161-0.296,0.425-0.369,0.736-0.342c-0.098,0.184-0.234,0.32-0.451,0.352
		c-0.14,0.021-0.231,0.109-0.304,0.221C2.048,6.601,2.054,6.524,2.061,6.447z"/>
	<path id="XMLID_575_" fill="#9149AE" d="M6.996,2.311C6.8,2.309,6.605,2.306,6.409,2.303c0.419-0.087,0.844-0.055,1.268-0.059
		c0.022,0.005,0.044,0.01,0.066,0.015c-0.017,0.118-0.114,0.11-0.196,0.125C7.362,2.367,7.165,2.442,6.996,2.311z"/>
	<path id="XMLID_574_" fill="#D92F7B" d="M18.105,14.52c-0.002-0.158-0.003-0.317-0.005-0.475c0.015-0.023,0.031-0.026,0.051-0.006
		c0,0,0.011,0.01,0.011,0.01C18.162,14.208,18.18,14.369,18.105,14.52z"/>
	<path id="XMLID_573_" fill="#8346B3" d="M5.152,2.53c-0.069,0.174-0.22,0.111-0.347,0.119C4.909,2.575,5.026,2.539,5.152,2.53z"/>
	<path id="XMLID_572_" fill="#8346B3" d="M4.808,2.647C4.755,2.791,4.632,2.766,4.519,2.767C4.602,2.694,4.696,2.648,4.808,2.647z"
		/>
	<path id="XMLID_571_" fill="#C2A680" d="M6.36,18.421c0.136,0.008,0.278-0.044,0.407,0.039C6.629,18.473,6.49,18.5,6.36,18.421z"/>
	<path id="XMLID_570_" fill="#EF5A4D" d="M15.511,17.956c0.058,0.001,0.117,0.001,0.175,0.002c-0.083,0.07-0.177,0.114-0.286,0.119
		c0,0-0.007-0.014-0.007-0.014C15.382,17.972,15.446,17.963,15.511,17.956z"/>
	<path id="XMLID_568_" fill="#DB2F77" d="M16.773,12.428c-0.011-0.018-0.01-0.036,0.004-0.053c0.134-0.075-0.042-0.306,0.177-0.343
		c0.232-0.039,0.251,0.204,0.382,0.276c0.319,0.178,0.399,0.581,0.74,0.727c0.095,0.04,0.082,0.142,0.082,0.228
		c-0.001,0.258-0.004,0.517-0.006,0.775c-0.017,0.003-0.034,0.005-0.051,0.006c0.054-0.355-0.263-0.509-0.431-0.724
		C17.412,12.99,17.076,12.722,16.773,12.428z"/>
	<path id="XMLID_567_" fill="#DB2F77" d="M16.771,12.91c-0.041-0.159-0.052-0.319,0.003-0.478
		C16.773,12.592,16.772,12.751,16.771,12.91z"/>
	<path id="XMLID_566_" fill="#D82E7E" d="M18.207,11.34c0,0.286-0.001,0.573-0.001,0.859c-0.099-0.081-0.17-0.198-0.334-0.175
		c-0.107,0.014-0.186-0.049-0.139-0.18c0.029-0.083,0.015-0.185-0.066-0.189c-0.334-0.016-0.465-0.302-0.678-0.478
		c-0.046-0.038-0.093-0.065-0.153-0.067c-0.061-0.246-0.012-0.495-0.029-0.742c0.169-0.246,0.305-0.062,0.436,0.041
		C17.595,10.686,17.874,11.041,18.207,11.34z"/>
	<path id="XMLID_565_" fill="#CE318D" d="M16.835,10.305c0,0.268,0,0.537,0,0.805c-0.009,0.079,0.026,0.169-0.056,0.23
		c-0.003-1.015-0.006-2.029-0.008-3.044c0.017-0.002,0.034-0.005,0.052-0.007c0.172,0.215,0.069,0.467,0.095,0.701
		c0.007,0.192,0.007,0.385,0,0.577C16.902,9.814,16.988,10.073,16.835,10.305z"/>
	<path id="XMLID_564_" fill="#FA9B43" d="M8.089,17.208c-0.133-0.024-0.143-0.087-0.056-0.18c0,0,0.002,0.004,0.002,0.004
		c0.211,0.07,0.429,0.016,0.643,0.033c0.469,0.147,0.909,0.374,1.388,0.493c0.132,0.102,0.277,0.189,0.375,0.33
		c0.052,0.075,0.128,0.142,0.075,0.249c-0.046,0.043-0.102,0.054-0.162,0.059c-0.057,0.003-0.113-0.004-0.167-0.022
		c-0.099-0.036-0.163-0.134-0.273-0.15c-0.039-0.009-0.076-0.022-0.112-0.039c-0.08-0.049-0.149-0.116-0.232-0.161
		c-0.024-0.015-0.046-0.031-0.068-0.049c-0.066-0.056-0.132-0.124-0.22-0.128C8.837,17.63,8.491,17.344,8.089,17.208z"/>
	<path id="XMLID_563_" fill="#FBA347" d="M7.169,17.439c0.041-0.068,0.109-0.056,0.173-0.058c0.268,0.025,0.544-0.058,0.805,0.058
		c0.072-0.06,0.141-0.012,0.214,0.002c0.273,0.052,0.483,0.254,0.754,0.316c0.085,0.019,0.168,0.095,0.122,0.216
		c-0.214,0.096-0.41,0.063-0.628-0.028c-0.356-0.15-0.727-0.265-1.115-0.31c-0.095-0.011-0.192-0.007-0.268-0.08
		C7.18,17.529,7.17,17.486,7.169,17.439z"/>
	<path id="XMLID_562_" fill="#FAA045" d="M9.24,17.956c-0.035-0.071-0.083-0.145-0.159-0.155c-0.343-0.044-0.602-0.297-0.934-0.363
		c0.009-0.084-0.018-0.158-0.057-0.23c0.299-0.077,0.499,0.174,0.756,0.241c0.091,0.024,0.18,0.118,0.297,0.103
		c0.203-0.026,0.347,0.054,0.442,0.231c-0.058,0.114-0.128,0.214-0.275,0.214C9.282,17.991,9.259,17.977,9.24,17.956z"/>
	<path id="XMLID_561_" fill="#AF33A5" d="M16.656,3.406c0.01,0.099-0.022,0.2-0.132,0.157c-0.293-0.116-0.533,0.017-0.783,0.125
		c-0.384,0-0.767,0-1.151,0c-0.128,0.105-0.267,0.08-0.398,0.018c-0.128-0.06-0.263-0.1-0.39-0.161
		c-0.08-0.086-0.007-0.141,0.04-0.202c0.618,0.029,1.236-0.024,1.857,0.039C16.01,3.414,16.337,3.294,16.656,3.406z"/>
	<path id="XMLID_560_" fill="#B136A2" d="M13.785,3.516c0.172-0.033,0.308,0.048,0.446,0.133c0.111,0.069,0.239,0.032,0.36,0.04
		c-0.009,0.085,0.02,0.16,0.059,0.233c-0.772-0.18-1.557-0.202-2.344-0.196c-0.045,0-0.09-0.02-0.135-0.031
		C12.672,3.308,13.225,3.378,13.785,3.516z"/>
	<path id="XMLID_559_" fill="#FBAB4D" d="M9.584,18.467c-0.287,0-0.575-0.001-0.862-0.001c-0.326-0.109-0.629-0.299-0.997-0.262
		c-0.259,0.026-0.481-0.075-0.672-0.248c-0.019-0.058-0.038-0.115-0.058-0.173c0.115,0,0.23,0,0.345,0
		c0.121-0.108,0.274-0.102,0.407-0.067c0.236,0.063,0.477,0.128,0.702,0.214c0.172,0.066,0.335,0.101,0.514,0.124
		C9.231,18.09,9.47,18.191,9.584,18.467z"/>
	<path id="XMLID_558_" fill="#FAA64A" d="M9.584,18.467c-0.242-0.194-0.481-0.389-0.826-0.341c-0.109,0.015-0.236,0.03-0.287-0.119
		c-0.007-0.02-0.047-0.044-0.069-0.041c-0.372,0.048-0.677-0.294-1.06-0.182c-0.032-0.08-0.123-0.13-0.115-0.23
		c0.265-0.078,0.518,0.13,0.785,0.034c0.149,0.281,0.504,0.106,0.705,0.328c0.111,0.123,0.346,0.025,0.524,0.041
		c0.019,0,0.038,0,0.058,0c0.252,0.082,0.503,0.168,0.729,0.312c0.074,0.047,0.201,0.056,0.135,0.198
		C9.968,18.467,9.776,18.467,9.584,18.467z"/>
	<path id="XMLID_557_" fill="#C62F95" d="M16.719,6.795c-0.047-0.165-0.064-0.335-0.063-0.506C16.642,6.082,16.717,6,16.92,6.105
		c0.268,0.138,0.557,0.225,0.829,0.358c0.444,0.216,0.423,0.581,0.406,0.965c-0.245-0.009-0.361-0.251-0.574-0.319
		c-0.052-0.016-0.104-0.084-0.144-0.075C17.146,7.1,16.954,6.885,16.719,6.795z"/>
	<path id="XMLID_556_" fill="#AB36A3" d="M13.785,3.516c-0.17,0-0.344,0.021-0.511-0.004c-0.391-0.059-0.744,0.076-1.104,0.183
		c0,0,0.002-0.002,0.002-0.002c-0.29-0.075-0.585-0.012-0.876-0.037c-0.082-0.007-0.218,0.061-0.228-0.087
		c-0.008-0.114,0.116-0.137,0.204-0.168c0.271-0.093,0.545-0.172,0.837-0.143c0.158,0.016,0.302-0.023,0.431-0.117
		c0.088-0.041,0.181-0.048,0.276-0.036c0.232,0.117,0.514,0.032,0.738,0.18c0.096,0.019,0.192,0.038,0.288,0.058
		C13.823,3.401,13.804,3.458,13.785,3.516z"/>
	<path id="XMLID_555_" fill="#A935A6" d="M13.555,3.286c-0.235-0.007-0.476,0.018-0.69-0.115c0.051-0.303,0.283-0.388,0.633-0.23
		c0.268,0.025,0.544-0.058,0.805,0.058c-0.075,0.166-0.218,0.176-0.375,0.176C13.796,3.174,13.639,3.118,13.555,3.286z"/>
	<path id="XMLID_554_" fill="#FCAF4F" d="M7.054,17.956c0.351,0.164,0.733,0.142,1.1,0.203c0.169,0.028,0.469,0.047,0.568,0.307
		c-0.18,0.002-0.36,0.007-0.539,0.006c-0.11,0-0.225,0.025-0.288-0.117c-0.036-0.081-0.134-0.053-0.207-0.053
		c-0.265-0.002-0.53-0.002-0.795,0c-0.125,0.001-0.23-0.02-0.241-0.173C6.827,18.17,6.871,17.9,7.054,17.956z"/>
	<path id="XMLID_553_" fill="#A537A5" d="M13.497,2.941c-0.231,0.021-0.51-0.09-0.633,0.23c-0.096,0-0.192,0-0.288,0
		c-0.025,0.015-0.049,0.038-0.077,0.038c-0.536-0.001-1.045,0.194-1.576,0.218c-0.221,0.01-0.435,0.008-0.64,0.12
		c-0.146,0.08-0.315,0.07-0.476,0.018c-0.155-0.205,0.105-0.25,0.146-0.38c0.105-0.102,0.24-0.092,0.368-0.09
		c0.146,0.002,0.276-0.031,0.391-0.122c0.026-0.013,0.056-0.035,0.08-0.028c0.352,0.103,0.686-0.097,1.033-0.058
		c0.224,0.025,0.407-0.173,0.636-0.117c0.345,0,0.69,0,1.036,0C13.497,2.825,13.497,2.883,13.497,2.941z"/>
	<path id="XMLID_552_" fill="#9D3AA9" d="M11.771,2.259c0.134,0,0.268,0,0.402,0c0.077,0.064,0.154,0.075,0.231,0
		c0.038,0.016,0.076,0.033,0.114,0.049c0.111,0.12,0.292-0.005,0.403,0.115c-0.08,0.253-0.293,0.152-0.46,0.173
		c-0.275,0.153-0.551,0.264-0.882,0.268c-0.275,0.003-0.54,0.161-0.829,0.108c-0.301,0.077-0.603,0.049-0.904-0.001
		C9.77,2.896,9.808,2.827,9.853,2.758c0.198-0.133,0.43-0.039,0.639-0.096c0.122-0.02,0.24-0.056,0.353-0.108
		C11.132,2.389,11.479,2.41,11.771,2.259z"/>
	<path id="XMLID_551_" fill="#A238A7" d="M10.736,2.941c0.205-0.008,0.426,0.052,0.587-0.141c0.006-0.007,0.017-0.013,0.025-0.012
		c0.391,0.052,0.74-0.143,1.114-0.192c0,0.058,0,0.115,0,0.173c-0.256,0.096-0.493,0.275-0.792,0.174
		c-0.025-0.008-0.064-0.011-0.083,0.002c-0.273,0.196-0.567,0.044-0.85,0.053c-0.015-0.013-0.02-0.026-0.015-0.038
		C10.726,2.947,10.731,2.941,10.736,2.941z"/>
	<path id="XMLID_550_" fill="#A03CAD" d="M12.922,2.423c-0.133-0.041-0.319,0.1-0.403-0.115c0.288,0.001,0.575,0.002,0.863,0.004
		C13.274,2.534,13.073,2.376,12.922,2.423z"/>
	<path id="XMLID_549_" fill="#F99445" d="M10.506,18.129c-0.068-0.249-0.317-0.336-0.46-0.518c0.011-0.143,0.121-0.111,0.209-0.119
		c0.321-0.013,0.526,0.208,0.758,0.375c0.256,0.037,0.41,0.22,0.569,0.396c0.055,0.061,0.08,0.129,0.018,0.202
		c-0.172,0-0.344,0.001-0.517,0.001C10.901,18.336,10.694,18.248,10.506,18.129z"/>
	<path id="XMLID_548_" fill="#F88E43" d="M11.599,18.465c-0.148-0.248-0.286-0.508-0.633-0.509
		c-0.084-0.203-0.315-0.334-0.284-0.592c0.193-0.112,0.282,0.078,0.415,0.142c0.274,0.159,0.476,0.404,0.717,0.603
		c0.104,0.086,0.152,0.217,0.073,0.357C11.79,18.465,11.695,18.465,11.599,18.465z"/>
	<path id="XMLID_547_" fill="#F78943" d="M11.886,18.465c-0.021-0.323-0.318-0.441-0.496-0.641c-0.085-0.096-0.194-0.194-0.309-0.27
		c0.305-0.206,0.409,0.09,0.575,0.23c0.302,0.154,0.492,0.422,0.69,0.681C12.193,18.465,12.039,18.465,11.886,18.465z"/>
	<path id="XMLID_546_" fill="#FAA049" d="M10.161,18.467c-0.167-0.167-0.382-0.257-0.596-0.329c-0.116-0.039-0.21-0.073-0.267-0.181
		c0.143,0.021,0.156-0.175,0.288-0.173h0c0.056,0.085,0.146,0.125,0.23,0.173c0.038,0,0.077,0,0.115,0
		c0.077,0.058,0.143,0.128,0.23,0.173c0.058,0,0.115,0,0.173,0c0.07,0.106,0.288,0.137,0.173,0.337
		C10.391,18.466,10.276,18.467,10.161,18.467z"/>
	<path id="XMLID_545_" fill="#F99C48" d="M10.506,18.466c0.049-0.167-0.23-0.166-0.173-0.337c0.058,0,0.115,0,0.173,0
		c0.262-0.006,0.455,0.105,0.577,0.337C10.89,18.466,10.698,18.466,10.506,18.466z"/>
	<path id="XMLID_544_" fill="#903CA8" d="M4.983,3.919c-0.308,0.003-0.617-0.018-0.92,0.058c0.017-0.136,0.143-0.212,0.23-0.219
		c0.301-0.027,0.541-0.251,0.847-0.24c0.127,0.005,0.201-0.034,0.19-0.174c0.177-0.149,0.414-0.114,0.617-0.17
		c0.454-0.126,0.878-0.414,1.383-0.317c0.128,0.012,0.26-0.013,0.383,0.045c0.1,0.27-0.117,0.292-0.278,0.331
		c-0.137,0.033-0.284,0.02-0.394,0.131C7.012,3.379,6.984,3.39,6.954,3.399C6.927,3.406,6.899,3.415,6.87,3.414
		C6.316,3.382,5.82,3.548,5.36,3.848c-0.062,0.041-0.13,0.077-0.2,0.107C5.095,3.973,5.034,3.967,4.983,3.919z"/>
	<path id="XMLID_543_" fill="#8C3FAC" d="M7.341,2.941c-0.151,0-0.303-0.001-0.454,0c-0.057,0-0.138-0.018-0.166,0.011
		C6.531,3.154,6.24,3.1,6.05,3.206C5.8,3.344,5.572,3.325,5.328,3.343c-0.058,0-0.115,0-0.173,0c0.181-0.218,0.453-0.282,0.69-0.403
		C6.03,2.737,6.259,2.649,6.531,2.687c0.243,0.034,0.424-0.159,0.653-0.17C7.4,2.52,7.62,2.476,7.832,2.557
		C7.961,2.738,7.821,2.79,7.691,2.83C7.574,2.866,7.442,2.851,7.341,2.941z"/>
	<path id="XMLID_542_" fill="#8741B0" d="M7.169,2.595C6.864,2.76,6.536,2.789,6.196,2.774c-0.134-0.006-0.17,0.241-0.351,0.167
		C5.718,2.953,5.66,2.896,5.673,2.768C5.83,2.763,6.012,2.817,6.076,2.595c0.265-0.23,0.646-0.083,0.92-0.284
		C7.188,2.31,7.379,2.309,7.571,2.308c0.07,0.141-0.045,0.154-0.129,0.179C7.348,2.517,7.236,2.497,7.169,2.595z"/>
	<path id="XMLID_541_" fill="#CD2F8E" d="M18.209,8.009c0,0.286,0,0.572,0,0.875c-0.161-0.067-0.308-0.128-0.455-0.19
		c-0.013-0.005-0.025-0.009-0.038-0.014c-0.115-0.29-0.387-0.326-0.64-0.396c-0.114-0.066-0.277-0.059-0.328-0.219
		c0.018-0.251-0.037-0.504,0.032-0.752c0.232-0.023,0.38,0.146,0.558,0.244C17.625,7.716,17.87,7.952,18.209,8.009z"/>
	<path id="XMLID_540_" fill="#CE318D" d="M16.781,7.313c0.002,0.269,0.003,0.538,0.005,0.806c0.038,0.058,0.045,0.114-0.005,0.169
		c0,0-0.011,0.007-0.011,0.007c-0.055-0.421-0.035-0.844-0.039-1.267C16.811,7.112,16.761,7.219,16.781,7.313z"/>
	<path id="XMLID_539_" fill="#A3389A" d="M3.72,5.646C3.663,5.861,3.607,6.077,3.55,6.293C3.532,6.169,3.551,6.048,3.594,5.877
		C3.312,5.969,3.091,6.198,2.796,6.105C3.016,5.774,3.371,5.715,3.72,5.646z"/>
	<path id="XMLID_538_" fill="#9339A3" d="M3.487,5.012c-0.332-0.035-0.62,0.165-0.944,0.18c-0.109,0.005-0.164,0.003-0.144-0.12
		c0.088-0.155,0.191-0.282,0.4-0.234c0.035,0.008,0.092,0.01,0.11-0.01c0.258-0.293,0.695-0.214,0.984-0.491
		c0.133-0.128,0.405-0.195,0.63-0.245C4.464,4.351,4.229,4.464,4.07,4.641C4.02,4.664,3.967,4.672,3.914,4.677
		C3.812,4.675,3.741,4.721,3.699,4.812C3.64,4.891,3.549,4.936,3.487,5.012L3.487,5.012z"/>
	<path id="XMLID_537_" fill="#953BA4" d="M4.062,4.609c0.109-0.212,0.318-0.335,0.46-0.518c0.184,0.025,0.337-0.035,0.46-0.173
		c0.058,0,0.115,0,0.173,0c0.089-0.041,0.181-0.098,0.228,0.05C5.135,4.105,4.887,4.242,4.639,4.379
		C4.534,4.448,4.443,4.532,4.358,4.623l0.006-0.002C4.261,4.678,4.159,4.701,4.062,4.609z"/>
	<path id="XMLID_536_" fill="#E86445" d="M3.445,12.951c0.01,0.269-0.078,0.398-0.389,0.421c-0.216,0.016-0.417,0.166-0.668,0.165
		c-0.279-0.001-0.385-0.085-0.341-0.356c0.283-0.172,0.615-0.226,0.912-0.372C3.091,12.746,3.363,12.64,3.445,12.951z"/>
	<path id="XMLID_535_" fill="#E35B4D" d="M1.996,12.718c0.001-0.095,0.003-0.19,0.004-0.284c0.167-0.157,0.399-0.174,0.597-0.265
		c0.167-0.077,0.366-0.085,0.537-0.181c0.077-0.043,0.169-0.025,0.238,0.043c0,0.232,0.043,0.504-0.349,0.357
		c-0.071-0.027-0.117,0.043-0.173,0.075C2.586,12.614,2.277,12.621,1.996,12.718z"/>
	<path id="XMLID_534_" fill="#E05751" d="M3.372,12.031c-0.295-0.009-0.537,0.174-0.812,0.242c-0.181,0.045-0.372,0.11-0.56,0.16
		c0-0.134,0-0.268,0-0.402c0.066-0.065,0.15-0.083,0.236-0.077c0.18,0.013,0.333-0.048,0.476-0.148
		c0.243-0.038,0.488-0.091,0.718,0.052c0,0.058,0,0.116,0,0.174C3.41,12.031,3.391,12.031,3.372,12.031z"/>
	<path id="XMLID_533_" fill="#ED6D3E" d="M3.479,13.755c0.005,0.095,0.011,0.191,0.016,0.286c-0.06,0.001-0.121,0.002-0.181,0.003
		c-0.326,0-0.652,0-0.978,0c0.075-0.273,0.374-0.18,0.541-0.325c0.112-0.097,0.349,0.025,0.507-0.095
		C3.416,13.668,3.448,13.711,3.479,13.755z"/>
	<path id="XMLID_532_" fill="#C33C79" d="M3.428,8.522c0.025,0.23,0.025,0.46-0.001,0.69C3.303,9.113,2.903,9.19,2.744,9.344
		C2.717,9.369,2.692,9.428,2.675,9.425C2.418,9.38,2.22,9.539,1.998,9.614c0-0.096,0-0.192,0-0.288C2.313,9.111,2.633,8.902,3,8.794
		c0.164-0.048,0.262-0.146,0.352-0.272C3.377,8.504,3.402,8.504,3.428,8.522z"/>
	<path id="XMLID_531_" fill="#BC3980" d="M3.428,8.522l-0.028,0l-0.028,0C3.008,8.698,2.603,8.767,2.241,8.95
		C2.166,8.988,2.074,8.99,1.999,8.924C1.972,8.777,2.026,8.732,2.178,8.677c0.252-0.091,0.48-0.27,0.687-0.432
		c0.179-0.14,0.386-0.068,0.55-0.225C3.423,8.135,3.43,8.219,3.436,8.302C3.433,8.375,3.43,8.448,3.428,8.522z"/>
	<path id="XMLID_530_" fill="#C03B7C" d="M1.999,8.924C2.148,8.89,2.325,8.92,2.414,8.745C2.422,8.73,2.444,8.708,2.455,8.71
		c0.334,0.074,0.578-0.289,0.917-0.188c0.014,0.143-0.057,0.266-0.182,0.284C2.742,8.872,2.43,9.235,1.999,9.326
		C1.999,9.192,1.999,9.058,1.999,8.924z"/>
	<path id="XMLID_529_" fill="#B63887" d="M1.996,8.009C2.34,7.933,2.672,7.827,2.975,7.641c0.138-0.084,0.297-0.025,0.446-0.04
		C3.372,7.847,3.137,7.872,2.968,7.946c-0.288,0.126-0.644,0.129-0.775,0.5c-0.016,0.045-0.066,0.07-0.118,0.063
		c-0.075-0.01-0.082-0.07-0.082-0.128C1.992,8.256,1.995,8.133,1.996,8.009z"/>
	<path id="XMLID_528_" fill="#D74C5E" d="M3.427,10.708c0,0.039,0,0.077,0,0.116C3.415,11,3.308,11.102,3.146,11.129
		c-0.318,0.053-0.623,0.149-0.932,0.236c-0.071,0.02-0.15,0.032-0.216-0.026c0-0.076,0-0.153,0-0.229
		c0.283-0.189,0.647-0.135,0.935-0.317C3.079,10.701,3.255,10.694,3.427,10.708z"/>
	<path id="XMLID_527_" fill="#D94E5B" d="M1.999,11.34c0.347-0.028,0.642-0.25,1.004-0.246c0.162,0.002,0.343-0.086,0.424-0.271
		c0,0.096,0,0.192,0,0.287c-0.442,0.16-0.877,0.344-1.328,0.47C1.899,11.636,2.039,11.421,1.999,11.34z"/>
	<path id="XMLID_526_" fill="#DF5354" d="M3.429,11.858c-0.249,0-0.499,0-0.748,0c-0.032,0.023-0.07,0.042-0.099,0.004
		c-0.054-0.072,0.016-0.12,0.042-0.176c0.205,0.045,0.303-0.189,0.511-0.184c0.16,0.004,0.25,0.032,0.291,0.183
		C3.428,11.743,3.429,11.8,3.429,11.858z"/>
	<path id="XMLID_525_" fill="#DD5454" d="M2.624,11.685c0.021,0.057-0.095,0.159,0.058,0.173c-0.052,0.179-0.191,0.181-0.34,0.174
		C2.227,12.026,2.113,12.031,2,12.031c-0.02-0.117,0.027-0.189,0.149-0.17C2.342,11.889,2.488,11.806,2.624,11.685z"/>
	<path id="XMLID_524_" fill="#993CA1" d="M4.062,4.609c0.1,0.004,0.201,0.008,0.301,0.012C4.312,4.737,4.221,4.818,4.119,4.888
		C4.002,4.693,3.885,4.847,3.802,4.91c-0.1,0.076-0.196,0.111-0.315,0.101c-0.039-0.149,0.106-0.16,0.173-0.23
		c0.047-0.097,0.154-0.115,0.23-0.173C3.947,4.609,4.005,4.609,4.062,4.609z"/>
	<path id="XMLID_523_" fill="#ED544D" d="M14.648,16.803c0.114-0.041,0.227-0.083,0.341-0.124c-0.106,0.122-0.088,0.24,0.029,0.337
		c0.198,0.164,0.371,0.329,0.33,0.626c-0.017,0.124,0.17,0.176,0.163,0.315c-0.039,0.035-0.079,0.071-0.118,0.106
		c-0.095-0.144-0.272-0.229-0.294-0.427c-0.01-0.086-0.091-0.08-0.156-0.083c-0.15-0.007-0.184-0.103-0.18-0.23
		c0.013-0.127-0.121-0.134-0.18-0.196C14.431,16.966,14.465,16.879,14.648,16.803z"/>
	<path id="XMLID_522_" fill="#F36A45" d="M13.67,17.208c-0.042,0.177,0.091,0.279,0.173,0.403c-0.138,0.083-0.278,0.009-0.417,0.009
		c-0.233-0.129-0.371-0.387-0.322-0.603c0.132-0.006,0.264-0.034,0.393,0.018C13.485,17.163,13.542,17.221,13.67,17.208z"/>
	<path id="XMLID_521_" fill="#F27A47" d="M13.497,17.035c-0.134,0.002-0.268,0.003-0.402,0.005
		c-0.309,0.124-0.618,0.147-0.924-0.011c0.441-0.056,0.883-0.04,1.326-0.045C13.497,17.001,13.497,17.018,13.497,17.035z"/>
	<path id="XMLID_520_" fill="#F67D41" d="M12.519,17.439c0.031,0.151,0.075,0.288,0.209,0.391c0.189,0.144,0.175,0.405,0.308,0.585
		c-0.15,0.019-0.27-0.009-0.361-0.153c-0.177-0.278-0.388-0.53-0.673-0.708c-0.098-0.101-0.223-0.171-0.315-0.277
		c-0.05-0.057-0.146-0.104-0.071-0.206c0.073-0.01,0.146-0.004,0.22-0.005c0.105,0.001,0.209-0.002,0.314,0.002
		C12.311,17.152,12.536,17.175,12.519,17.439z"/>
	<path id="XMLID_519_" fill="#F7873F" d="M11.656,17.784c-0.066-0.002-0.16,0.011-0.181-0.055c-0.068-0.219-0.24-0.172-0.395-0.175
		c-0.178,0.046-0.205-0.264-0.403-0.173c-0.166,0.015-0.295-0.1-0.45-0.13c-0.083-0.016-0.121-0.085-0.067-0.172
		c0.031-0.011,0.062-0.015,0.095-0.014c0.262,0,0.524-0.001,0.786,0.001c0.18,0.056,0.311,0.201,0.49,0.265
		c0.104,0.037,0.14,0.119,0.067,0.222C11.638,17.625,11.665,17.7,11.656,17.784z"/>
	<path id="XMLID_518_" fill="#F7823F" d="M11.599,17.554c0.003-0.095-0.014-0.168-0.136-0.173c-0.189-0.009-0.273-0.166-0.382-0.286
		c0.173-0.045,0.345-0.045,0.518,0c0.099,0.184,0.378,0.211,0.403,0.46C11.867,17.554,11.733,17.554,11.599,17.554z"/>
	<path id="XMLID_517_" fill="#D24666" d="M3.372,10.247c0.006,0.217-0.096,0.301-0.315,0.291c-0.333-0.015-0.606,0.193-0.91,0.287
		c-0.171,0.053-0.153-0.01-0.148-0.118c0.324-0.222,0.726-0.279,1.054-0.501C3.129,10.154,3.276,10.15,3.372,10.247z"/>
	<path id="XMLID_516_" fill="#F47142" d="M12.519,17.439c-0.038-0.192-0.275-0.185-0.345-0.345c-0.02-0.012-0.027-0.025-0.022-0.039
		c0.005-0.015,0.011-0.022,0.017-0.022c0,0,0.002-0.003,0.002-0.003c0.308,0.004,0.616,0.007,0.924,0.011
		c0.145,0.151,0.106,0.425,0.345,0.513c0.066,0.066,0.123,0.134,0.073,0.235c-0.14,0.094-0.279,0.049-0.418-0.005
		C12.903,17.669,12.711,17.554,12.519,17.439z"/>
	<path id="XMLID_515_" fill="#F26D46" d="M13.497,17.784c-0.019-0.077-0.038-0.153-0.058-0.23c0.14-0.018,0.27,0.024,0.403,0.058
		c0.036,0.298,0.302,0.474,0.396,0.741c-0.132,0.002-0.264,0.004-0.396,0.006c-0.088-0.113-0.19-0.213-0.275-0.327
		C13.514,17.96,13.42,17.894,13.497,17.784z"/>
	<path id="XMLID_514_" fill="#F47244" d="M13.497,17.784c0.019,0.161,0.157,0.245,0.258,0.334c0.09,0.079,0.079,0.154,0.087,0.241
		c-0.347,0.023-0.552-0.135-0.748-0.575C13.229,17.688,13.363,17.819,13.497,17.784z"/>
	<path id="XMLID_513_" fill="#D62E83" d="M16.835,10.305c0-0.249,0-0.499,0-0.748c0.022-0.02,0.058-0.043,0.076-0.028
		c0.26,0.207,0.614,0.27,0.834,0.531c0.137,0.162,0.286,0.303,0.462,0.419c0,0.288,0,0.575,0,0.863
		c-0.146-0.019-0.256-0.086-0.337-0.216c-0.178-0.287-0.492-0.442-0.704-0.699C17.085,10.326,16.96,10.305,16.835,10.305z"/>
	<path id="XMLID_512_" fill="#D32F86" d="M18.207,10.478c-0.111,0.007-0.242-0.021-0.283-0.105c-0.202-0.409-0.674-0.468-0.96-0.765
		c-0.029-0.03-0.085-0.034-0.129-0.051c0-0.192,0-0.384,0-0.575c0.036-0.033,0.085-0.073,0.125-0.055
		c0.284,0.133,0.662,0.079,0.841,0.419c0.043,0.082,0.115,0.124,0.201,0.144c0.101,0.024,0.165,0.087,0.205,0.179
		C18.207,9.938,18.207,10.208,18.207,10.478z"/>
	<path id="XMLID_511_" fill="#D12E89" d="M18.207,9.669c-0.081-0.045-0.145-0.125-0.254-0.114c-0.058,0.006-0.145-0.004-0.152-0.054
		c-0.056-0.413-0.495-0.272-0.691-0.484c-0.067-0.072-0.183-0.028-0.276-0.036c-0.028-0.23,0.057-0.469-0.054-0.693
		c0.002-0.056,0.003-0.113,0.005-0.169c0.13-0.016,0.227,0.068,0.336,0.114c0.139,0.252,0.474,0.236,0.633,0.46
		c-0.029,0.162,0.112,0.253,0.202,0.272c0.314,0.068,0.257,0.294,0.257,0.504C18.214,9.536,18.21,9.602,18.207,9.669z"/>
	<path id="XMLID_510_" fill="#923EAB" d="M7.341,2.941c0.045-0.136,0.137-0.189,0.28-0.174c0.124,0.013,0.227-0.019,0.238-0.171
		c0.326-0.167,0.678-0.257,1.032-0.337c0.538,0,1.076,0,1.614,0c0.085,0.156-0.016,0.221-0.14,0.228
		c-0.407,0.024-0.78,0.204-1.2,0.215C8.879,2.711,8.561,2.804,8.289,2.959C8.104,3.044,7.92,3.107,7.744,2.941
		C7.61,2.941,7.476,2.941,7.341,2.941z"/>
	<path id="XMLID_509_" fill="#963CAB" d="M8.262,2.941c0.005-0.06,0.028-0.147,0.077-0.14c0.324,0.045,0.573-0.258,0.883-0.2
		c0.427,0.081,0.777-0.245,1.195-0.189c0.085,0.011,0.084-0.086,0.088-0.153c0.422,0,0.844,0,1.266,0
		c-0.003,0.056,0,0.147-0.058,0.145c-0.307-0.013-0.571,0.152-0.863,0.192c-0.106,0.066-0.245,0.032-0.345,0.115
		c-0.203,0.103-0.423,0.023-0.633,0.058C9.403,2.843,8.959,3.057,8.469,3.021C8.393,3.015,8.317,3.003,8.262,2.941z"/>
	<path id="XMLID_508_" fill="#8A41B0" d="M8.891,2.259C8.881,2.275,8.873,2.301,8.859,2.304c-0.338,0.082-0.634,0.307-1,0.291
		c-0.23,0-0.46,0-0.69,0c-0.012-0.138,0.06-0.179,0.187-0.174c0.089,0.003,0.198,0.027,0.216-0.113
		c0.061-0.003,0.127,0.009,0.171-0.05C8.126,2.259,8.509,2.259,8.891,2.259z"/>
	<path id="XMLID_507_" fill="#9B3EAB" d="M12.405,2.259c-0.007,0.056-0.017,0.123-0.082,0.127c-0.081,0.006-0.14-0.038-0.149-0.128
		C12.251,2.258,12.328,2.259,12.405,2.259z"/>
	<path id="XMLID_506_" fill="#C93086" d="M12.064,6.678c0.332,0.155,0.632,0.355,0.879,0.628c-0.028,0.027-0.064,0.05-0.101,0.043
		c-0.601-0.12-1.209-0.034-1.813-0.067c-0.256,0.006-0.512,0.007-0.768,0.001c-0.104-0.002-0.21-0.008-0.29-0.09
		C9.938,7.149,9.922,7.099,9.916,7.045c-0.011-0.158-0.003-0.308,0.159-0.396c0.169-0.063,0.333-0.059,0.488,0.044
		c0.098,0.065,0.192,0.071,0.289-0.001c0.139-0.103,0.299-0.123,0.46-0.092C11.561,6.649,11.817,6.617,12.064,6.678z"/>
	<path id="XMLID_505_" fill="#D02F80" d="M13.316,7.716c0.181,0.214,0.38,0.415,0.473,0.689c-0.228,0.015-0.428-0.035-0.648-0.129
		c-0.362-0.153-0.76-0.232-1.152-0.301c-0.144-0.025-0.248,0.077-0.348,0.167c-0.302-0.026-0.527-0.257-0.824-0.306
		c-0.123-0.02-0.276-0.02-0.338-0.175c-0.001-0.069,0.032-0.119,0.084-0.161c0.211-0.145,0.432-0.025,0.642-0.006
		c0.249,0.022,0.494,0.043,0.744,0.029c0.25-0.015,0.497-0.003,0.728,0.118c0.105,0.055,0.223,0.048,0.338,0.026
		C13.121,7.647,13.224,7.644,13.316,7.716z"/>
	<path id="XMLID_504_" fill="#F2673C" d="M10.732,14.492c-1.26,0.187-2.378-0.118-3.341-0.963c0.114-0.108,0.247-0.088,0.377-0.046
		c0.487,0.157,0.982,0.274,1.492,0.323c0.28,0.103,0.463,0.352,0.74,0.475c0.163,0.073,0.295,0.141,0.476,0.109
		C10.569,14.373,10.693,14.345,10.732,14.492z"/>
	<path id="XMLID_503_" fill="#C83281" d="M9.988,7.025c0,0.038,0,0.077,0,0.115C9.921,7.283,9.784,7.253,9.665,7.277
		C9.3,7.35,8.949,7.466,8.617,7.636C8.441,7.706,8.257,7.657,8.081,7.65C7.81,7.639,7.553,7.676,7.295,7.741
		C7.193,7.689,7.038,7.699,7.044,7.524C7.146,7.4,7.247,7.275,7.391,7.195c0.68-0.336,1.411-0.244,2.13-0.255
		C9.68,6.937,9.848,6.909,9.988,7.025z"/>
	<path id="XMLID_502_" fill="#C82F8F" d="M13.951,6.856c-0.019-0.012-0.038-0.024-0.057-0.035c-0.076-0.089-0.159-0.172-0.248-0.249
		c-0.012-0.019-0.024-0.038-0.036-0.058c-0.031-0.118-0.116-0.227-0.067-0.36c0.149-0.109,0.326-0.053,0.473-0.033
		c0.375,0.051,0.758-0.036,1.126,0.084c0.098,0.032,0.216,0.04,0.199,0.191c-0.132,0.337-0.369,0.539-0.735,0.578
		c-0.102,0.031-0.205,0.035-0.307-0.002L14.3,6.974C14.19,6.917,14.061,6.913,13.951,6.856z"/>
	<path id="XMLID_501_" fill="#D52F7B" d="M14.018,8.923c0.108,0.177,0.146,0.374,0.165,0.576c-0.121,0.05-0.227-0.003-0.317-0.069
		c-0.255-0.188-0.566-0.202-0.854-0.28c-0.137-0.037-0.302-0.026-0.434,0.074C12.32,9.04,12.16,8.791,12.091,8.481
		c0.061-0.138,0.187-0.14,0.312-0.153c0.235-0.025,0.462,0.041,0.665,0.127C13.391,8.594,13.781,8.608,14.018,8.923z"/>
	<path id="XMLID_500_" fill="#F05B41" d="M11.476,14.308c-0.185,0.064-0.365,0.145-0.567,0.143c-0.22-0.105-0.442-0.209-0.631-0.368
		c-0.188-0.182-0.4-0.318-0.669-0.344c-0.026-0.013-0.048-0.03-0.067-0.051c-0.113-0.172-0.268-0.256-0.478-0.268
		c-0.462-0.026-0.82-0.288-1.177-0.546c-0.033-0.024-0.043-0.061-0.036-0.102c0.033-0.034,0.075-0.05,0.121-0.057
		c0.062-0.007,0.122,0.002,0.18,0.023c0.123,0.074,0.249,0.139,0.4,0.14c0.077,0,0.163,0.011,0.215,0.067
		c0.236,0.256,0.551,0.281,0.866,0.308c0.613,0.152,1.157,0.45,1.672,0.803C11.387,14.114,11.467,14.193,11.476,14.308z"/>
	<path id="XMLID_499_" fill="#DA3173" d="M14.251,10.78c0,0.135,0.015,0.272-0.06,0.396c-0.007-0.006-0.02-0.012-0.021-0.019
		c-0.064-0.583-0.597-0.639-0.978-0.86c-0.096-0.056-0.201-0.028-0.257,0.098c-0.027,0.061-0.017,0.2-0.159,0.119
		c-0.053-0.334-0.138-0.664-0.135-1.006c0.098-0.179,0.258-0.164,0.397-0.089c0.328,0.177,0.662,0.343,0.985,0.533
		c0.205,0.121,0.281,0.264,0.252,0.487C14.259,10.552,14.294,10.668,14.251,10.78z"/>
	<path id="XMLID_498_" fill="#C13195" d="M13.488,5.873c0.068-0.485,0.438-0.82,0.929-0.841c0.471-0.021,0.866,0.298,0.976,0.786
		c-0.135,0.164-0.292,0.177-0.485,0.1c-0.282-0.113-0.592-0.125-0.878-0.235C13.807,5.597,13.658,5.777,13.488,5.873z"/>
	<path id="XMLID_497_" fill="#C53286" d="M9.988,7.025c-0.475,0-0.951-0.008-1.426,0.003c-0.245,0.006-0.499-0.07-0.725,0.146
		c-0.081,0.077-0.293,0.018-0.446,0.02c0.211-0.229,0.469-0.39,0.75-0.517c0.539-0.112,1.084-0.186,1.633-0.225
		C9.9,6.505,10.093,6.461,10.103,6.68C9.974,6.765,9.983,6.896,9.988,7.025z"/>
	<path id="XMLID_496_" fill="#C53091" d="M13.488,5.873c0.171-0.285,0.399-0.365,0.718-0.216c0.278,0.13,0.602,0.07,0.87,0.246
		c0.097,0.064,0.2-0.091,0.318-0.086c0.072,0.201,0.041,0.393-0.053,0.579c-0.216-0.156-0.454-0.226-0.718-0.162
		c-0.064,0.016-0.132,0.066-0.19,0.033c-0.279-0.161-0.592-0.015-0.877-0.105c-0.02,0.032-0.042,0.034-0.067,0.005
		C13.444,6.069,13.439,5.971,13.488,5.873z"/>
	<path id="XMLID_495_" fill="#CD3083" d="M13.316,7.716c-0.482,0.181-0.917-0.189-1.392-0.118c-0.376,0.056-0.745-0.019-1.113-0.095
		c-0.077-0.016-0.165,0.025-0.248,0.039c-0.063-0.168,0.066-0.194,0.171-0.206c0.118-0.014,0.217-0.042,0.289-0.139
		c0.352,0,0.704,0.004,1.055-0.001c0.294-0.005,0.586-0.004,0.864,0.11C13.083,7.428,13.236,7.539,13.316,7.716z"/>
	<path id="XMLID_494_" fill="#D32F7E" d="M14.018,8.923c-0.402-0.203-0.824-0.36-1.258-0.473c-0.214-0.056-0.461-0.155-0.649,0.085
		c-0.212-0.069-0.377-0.192-0.458-0.408c-0.033-0.08-0.035-0.146,0.068-0.178c0.155-0.048,0.304-0.085,0.471-0.028
		c0.276,0.095,0.55,0.207,0.852,0.201c0.035-0.001,0.08,0.012,0.105,0.035c0.133,0.129,0.26,0.247,0.472,0.156
		c0.036-0.016,0.111,0.059,0.168,0.092C13.909,8.558,13.977,8.735,14.018,8.923z"/>
	<path id="XMLID_493_" fill="#CE347A" d="M6.418,8.4C6.434,8.251,6.546,8.161,6.63,8.053c0.247-0.102,0.496-0.17,0.772-0.171
		C7.849,7.88,8.293,7.814,8.736,7.749c0.129-0.019,0.209,0.011,0.2,0.159c-0.24,0.285-0.553,0.474-0.87,0.66
		C7.819,8.47,7.57,8.392,7.297,8.395C7.074,8.397,6.866,8.416,6.665,8.529C6.504,8.619,6.455,8.582,6.418,8.4z"/>
	<path id="XMLID_492_" fill="#D83077" d="M14.251,10.78c-0.002-0.048-0.005-0.095-0.005-0.143c-0.005-0.431-0.17-0.642-0.568-0.797
		c-0.213-0.083-0.412-0.208-0.608-0.329c-0.136-0.085-0.256-0.11-0.383,0.001c-0.146-0.056-0.167-0.159-0.112-0.292
		c0.002-0.123,0.028-0.16,0.184-0.16c0.527-0.001,0.974,0.217,1.426,0.438C14.296,9.921,14.347,10.346,14.251,10.78z"/>
	<path id="XMLID_491_" fill="#DD326E" d="M12.815,10.535c0.135-0.434,0.126-0.406,0.612-0.211c0.21,0.084,0.365,0.243,0.584,0.312
		c0.265,0.083,0.155,0.346,0.18,0.54c-0.001,0.162-0.039,0.316-0.113,0.461c-0.266-0.411-0.704-0.594-1.099-0.834
		c-0.063-0.038-0.15-0.036-0.198-0.106C12.758,10.635,12.759,10.579,12.815,10.535z"/>
	<path id="XMLID_490_" fill="#A838A3" d="M9.758,3.516c0.234-0.005,0.452-0.002,0.682-0.136c0.166-0.097,0.429-0.037,0.648-0.034
		c0.176,0.002,0.334-0.03,0.497-0.105c0.317-0.147,0.661-0.041,0.992-0.069c-0.106,0.177-0.28,0.188-0.453,0.17
		c-0.364-0.038-0.688,0.082-1.044,0.219c0.16,0.119,0.315,0.05,0.456,0.071c0.211,0.032,0.436-0.071,0.637,0.062
		C10.927,3.691,9.681,3.69,8.436,3.688C8.449,3.554,8.559,3.56,8.647,3.553C8.975,3.53,9.308,3.57,9.63,3.468
		C9.675,3.454,9.722,3.481,9.758,3.516z"/>
	<path id="XMLID_489_" fill="#CB327D" d="M8.894,7.93c0-0.102-0.01-0.144-0.148-0.118C8.224,7.91,7.698,7.989,7.163,7.952
		C7.08,7.947,7.012,7.96,6.953,8.016C6.854,8.11,6.742,8.081,6.63,8.053C6.673,7.946,6.725,7.844,6.818,7.77
		c0.154-0.031,0.306-0.071,0.466-0.055c0.203-0.13,0.414-0.181,0.662-0.139c0.216,0.036,0.441,0.018,0.661,0.024
		c0.212-0.126,0.441-0.093,0.668-0.069c0.102,0.011,0.18,0.064,0.175,0.185C9.315,7.917,9.113,7.946,8.894,7.93z"/>
	<path id="XMLID_488_" fill="#EF5E41" d="M7.859,12.778c0.423,0.274,0.821,0.593,1.373,0.586c0.171-0.002,0.334,0.119,0.353,0.335
		c-0.075,0.08-0.174,0.077-0.271,0.079C8.952,13.7,8.598,13.6,8.274,13.415c-0.456-0.234-0.953-0.345-1.446-0.466
		c-0.045-0.055-0.09-0.11-0.135-0.165c0.113-0.179,0.293-0.106,0.444-0.107C7.381,12.676,7.633,12.648,7.859,12.778z"/>
	<path id="XMLID_487_" fill="#EE5745" d="M11.476,14.308c-0.293-0.307-0.669-0.501-1.039-0.68c-0.246-0.119-0.501-0.27-0.795-0.275
		c-0.174-0.28-0.174-0.28,0.078-0.364c0.172-0.002,0.345-0.022,0.514,0.027c0.246,0.174,0.501,0.333,0.777,0.456
		c0.063,0.028,0.122,0.062,0.157,0.118c0.182,0.291,0.459,0.435,0.779,0.514C11.809,14.216,11.641,14.258,11.476,14.308z"/>
	<path id="XMLID_486_" fill="#E13666" d="M14.017,11.801c-0.055,0.229-0.146,0.441-0.291,0.627
		c-0.114-0.287-0.375-0.411-0.617-0.558c-0.187-0.113-0.391-0.201-0.552-0.355c-0.049-0.158,0.026-0.286,0.098-0.415
		c0.11-0.127,0.244-0.099,0.361-0.031C13.375,11.279,13.694,11.543,14.017,11.801z"/>
	<path id="XMLID_485_" fill="#C43389" d="M9.815,6.507c-0.557,0.061-1.106,0.212-1.674,0.17C9.016,6.2,9.937,6.04,10.916,6.274
		c-0.008,0.084-0.048,0.151-0.132,0.16C10.461,6.465,10.148,6.62,9.815,6.507z"/>
	<path id="XMLID_484_" fill="#E43A60" d="M12.57,11.511c0.312,0.108,0.56,0.334,0.853,0.467c0.219,0.1,0.293,0.239,0.303,0.45
		c-0.024,0.098-0.077,0.178-0.152,0.244c-0.267-0.115-0.579-0.155-0.747-0.436c-0.058-0.097-0.153-0.137-0.246-0.184
		c-0.102-0.051-0.212-0.096-0.223-0.234C12.386,11.686,12.401,11.545,12.57,11.511z"/>
	<path id="XMLID_483_" fill="#ED5049" d="M12.348,13.875c-0.078,0.086-0.174,0.141-0.286,0.171c-0.082,0.04-0.203,0.06-0.238-0.009
		c-0.209-0.408-0.684-0.417-0.986-0.681c-0.117-0.102-0.295-0.153-0.282-0.357c0.159-0.094,0.33-0.149,0.517-0.145
		c0.274,0.119,0.438,0.397,0.732,0.494C11.9,13.38,12,13.426,12.089,13.476C12.238,13.559,12.44,13.629,12.348,13.875z"/>
	<path id="XMLID_482_" fill="#D43A6E" d="M6.071,9.313C6.066,9.169,6.107,9.039,6.189,8.92C6.575,9.02,6.963,8.945,7.35,8.932
		C7.482,8.927,7.614,8.88,7.74,8.961c0.093,0.226-0.042,0.358-0.2,0.48C7.11,9.587,6.669,9.528,6.231,9.512
		C6.129,9.509,6.011,9.47,6.071,9.313z"/>
	<path id="XMLID_481_" fill="#EB5748" d="M6.477,12.436c-0.079-0.105-0.151-0.214-0.172-0.347c-0.011-0.076,0.044-0.107,0.099-0.115
		c0.295-0.043,0.607-0.091,0.879,0.021c0.251,0.103,0.499,0.113,0.753,0.139c0.206,0.046,0.328,0.21,0.472,0.341
		c0.042,0.038,0.098,0.103,0.007,0.16c-0.283,0.046-0.547-0.049-0.813-0.117C7.3,12.413,6.884,12.494,6.477,12.436z"/>
	<path id="XMLID_480_" fill="#C73189" d="M9.815,6.507c0.374-0.042,0.752-0.069,1.1-0.234c0.404,0.073,0.802,0.165,1.148,0.404
		c-0.276,0.082-0.551,0.023-0.826-0.009c-0.135-0.016-0.26-0.012-0.359,0.111c-0.085,0.105-0.234,0.118-0.305,0.029
		c-0.137-0.171-0.307-0.116-0.471-0.128C10.062,6.53,9.887,6.606,9.815,6.507z"/>
	<path id="XMLID_479_" fill="#E7514E" d="M6.188,11.802c-0.053-0.043-0.06-0.103-0.059-0.166c-0.05-0.168,0.053-0.242,0.187-0.238
		c0.443,0.016,0.89-0.032,1.329,0.07c0.135,0.096,0.225,0.211,0.163,0.39c-0.082,0.082-0.189,0.086-0.294,0.086
		c-0.333,0.001-0.667,0-1-0.002C6.385,11.942,6.265,11.921,6.188,11.802z"/>
	<path id="XMLID_478_" fill="#CF3776" d="M6.418,8.4c0.015,0.118,0.111,0.16,0.181,0.098c0.355-0.315,0.764-0.138,1.152-0.147
		c0.145-0.003,0.198,0.182,0.347,0.173C8.087,8.701,8.02,8.826,7.816,8.823c-0.47-0.048-0.943-0.139-1.401,0.068
		C6.341,8.924,6.268,8.925,6.203,8.866C6.25,8.699,6.306,8.537,6.418,8.4z"/>
	<path id="XMLID_477_" fill="#DF3469" d="M14.017,11.801c-0.37-0.105-0.6-0.421-0.919-0.604c-0.123-0.07-0.229-0.179-0.385-0.087
		c-0.12-0.169-0.043-0.293,0.093-0.403c0.057,0.003,0.123-0.013,0.17,0.011c0.377,0.195,0.737,0.418,1.056,0.701
		c0.064,0.057,0.033,0.144,0.046,0.217C14.077,11.698,14.071,11.758,14.017,11.801z"/>
	<path id="XMLID_476_" fill="#E44D53" d="M7.636,11.511c-0.414-0.017-0.829-0.032-1.243-0.053c-0.138-0.007-0.249,0.011-0.265,0.178
		c-0.075-0.145-0.113-0.299-0.114-0.463c-0.01-0.109,0.078-0.131,0.147-0.132c0.442-0.01,0.888-0.086,1.321,0.066
		C7.621,11.209,7.706,11.33,7.636,11.511z"/>
	<path id="XMLID_475_" fill="#E24A57" d="M7.505,11.168c-0.443-0.104-0.893-0.041-1.339-0.057c-0.059-0.002-0.114,0.01-0.151,0.063
		c-0.067-0.09-0.053-0.193-0.05-0.295c0.054-0.21,0.227-0.249,0.399-0.242c0.35,0.013,0.703-0.001,1.047,0.085
		C7.553,10.847,7.614,10.99,7.505,11.168z"/>
	<path id="XMLID_474_" fill="#EA4751" d="M12.996,13.36c-0.057,0.15-0.233,0.162-0.32,0.277c-0.178-0.006-0.326-0.07-0.453-0.203
		c-0.187-0.196-0.43-0.311-0.677-0.411c-0.115-0.047-0.203-0.102-0.212-0.237c0.083-0.191,0.241-0.278,0.435-0.314
		C12.157,12.797,12.572,13.085,12.996,13.36z"/>
	<path id="XMLID_473_" fill="#F1633E" d="M8.262,13.354c0.236,0.149,0.544,0.115,0.766,0.299c0.084,0.07,0.179,0.036,0.27,0.047
		c0.046,0.058,0.05,0.115,0,0.173c-0.275-0.015-0.57,0.071-0.805-0.159c-0.021-0.021-0.073-0.011-0.11-0.014
		c-0.218-0.012-0.441,0.048-0.633-0.147c-0.063-0.064-0.235-0.019-0.357-0.024c-0.076-0.033-0.137-0.083-0.174-0.159
		c0.002-0.15,0.118-0.128,0.204-0.122C7.703,13.267,7.99,13.251,8.262,13.354z"/>
	<path id="XMLID_472_" fill="#A23AA3" d="M9.758,3.516c-0.42,0.22-0.893,0.03-1.322,0.172C8.305,3.69,8.175,3.691,8.044,3.693
		c-0.09,0.043-0.186,0.025-0.278,0.02C7.694,3.71,7.574,3.767,7.568,3.631C7.563,3.523,7.65,3.47,7.75,3.448
		c0.083-0.019,0.168-0.017,0.252-0.014c0.233-0.014,0.454-0.026,0.691-0.11c0.352-0.125,0.749-0.113,1.123-0.187
		C9.88,3.125,9.945,3.171,9.988,3.228C9.975,3.375,9.791,3.385,9.758,3.516z"/>
	<path id="XMLID_471_" fill="#F1613E" d="M9.297,13.872c0-0.058,0-0.115,0-0.173c0.096,0,0.192,0,0.288,0h0
		c0.227,0.122,0.461,0.229,0.69,0.345c0.072,0.006,0.178-0.028,0.205,0.048c0.055,0.156,0.157,0.191,0.302,0.185
		c0.121-0.005,0.125,0.087,0.127,0.174c-0.051,0.049-0.113,0.049-0.177,0.04c-0.034-0.014-0.072-0.048-0.101-0.04
		C10.037,14.6,9.69,14.183,9.297,13.872z"/>
	<path id="XMLID_470_" fill="#E63D5C" d="M12.404,11.801c0.008,0.124,0.114,0.145,0.198,0.181c0.148,0.065,0.317,0.099,0.329,0.31
		c0.003,0.055,0.051,0.079,0.103,0.082c0.228,0.013,0.369,0.185,0.541,0.299c-0.038,0.112-0.107,0.202-0.197,0.277
		c-0.051,0.048-0.108,0.037-0.155,0.002c-0.339-0.252-0.69-0.486-1.04-0.723c-0.023-0.015-0.031-0.046-0.04-0.073
		C12.17,11.993,12.204,11.836,12.404,11.801z"/>
	<path id="XMLID_469_" fill="#9B3CA5" d="M8.032,3.516C7.895,3.549,7.639,3.437,7.645,3.609c0.006,0.18,0.264,0.027,0.399,0.084
		C7.746,3.771,7.44,3.727,7.139,3.732c-0.535,0.01-1.059,0.085-1.58,0.19C5.632,3.685,5.858,3.731,6.025,3.69
		c0.337-0.082,0.639-0.256,0.971-0.347l0,0c0.34-0.141,0.688-0.099,1.036-0.045C8.147,3.371,8.089,3.444,8.032,3.516z"/>
	<path id="XMLID_468_" fill="#E84355" d="M12.996,13.36c-0.138,0.006-0.244-0.042-0.356-0.134c-0.206-0.17-0.433-0.315-0.659-0.459
		c-0.104-0.066-0.149-0.166-0.21-0.26c0.012-0.107,0.083-0.154,0.178-0.177c0.333,0.049,0.604,0.222,0.834,0.452
		c0.131,0.132,0.374,0.17,0.378,0.418C13.106,13.253,13.051,13.306,12.996,13.36z"/>
	<path id="XMLID_467_" fill="#D23872" d="M6.203,8.866c0.449-0.249,0.94-0.163,1.418-0.172c0.099-0.002,0.22-0.032,0.242,0.124
		c0.052,0.121-0.024,0.148-0.118,0.163C7.29,9.015,6.835,9.043,6.381,9.086C6.237,9.1,6.184,9.055,6.189,8.92
		C6.185,8.9,6.189,8.882,6.203,8.866z"/>
	<path id="XMLID_466_" fill="#EB4B4E" d="M11.366,12.771c0.089,0.255,0.367,0.219,0.546,0.336c0.26,0.17,0.466,0.417,0.764,0.529
		c-0.078,0.123-0.202,0.182-0.328,0.239c0.014-0.184-0.162-0.299-0.253-0.324c-0.412-0.114-0.719-0.367-1.014-0.65
		C11.136,12.771,11.225,12.713,11.366,12.771z"/>
	<path id="XMLID_465_" fill="#ED5A45" d="M6.477,12.436c0.32-0.13,0.656-0.076,0.976-0.04c0.37,0.042,0.732,0.163,1.105,0.207
		c0.231,0.004,0.432,0.056,0.501,0.316c-0.043,0.041-0.108,0.089-0.151,0.062c-0.234-0.151-0.525-0.076-0.763-0.202
		c-0.058,0-0.115,0-0.173,0c-0.376-0.167-0.771-0.146-1.166-0.114c-0.056,0.005-0.112,0.019-0.169,0.019
		C6.565,12.613,6.504,12.536,6.477,12.436z"/>
	<path id="XMLID_464_" fill="#953DA6" d="M6.996,3.343C7.003,3.458,6.959,3.53,6.834,3.514C6.651,3.492,6.514,3.559,6.38,3.688
		C6.251,3.813,6.052,3.719,5.892,3.791C5.784,3.84,5.651,3.829,5.559,3.923C5.508,3.968,5.451,3.987,5.383,3.968
		c-0.063-0.075-0.15-0.042-0.228-0.05C5.409,3.762,5.649,3.601,5.936,3.48C6.305,3.323,6.645,3.386,6.996,3.343z"/>
	<path id="XMLID_463_" fill="#EE5347" d="M10.563,13.036c0.275,0.303,0.653,0.45,1.003,0.633c0.134,0.07,0.247,0.106,0.269,0.274
		c0.018,0.14,0.142,0.089,0.228,0.104c-0.038,0.019-0.077,0.039-0.115,0.058c-0.267,0.027-0.514-0.028-0.662-0.263
		c-0.187-0.296-0.511-0.378-0.778-0.548c-0.094-0.06-0.223-0.073-0.232-0.219C10.362,12.993,10.453,12.943,10.563,13.036z"/>
	<path id="XMLID_462_" fill="#E9544B" d="M6.188,11.802c0.537,0.093,1.074,0.088,1.612,0.006c0.216,0.042,0.266,0.21,0.298,0.392
		c-0.289-0.021-0.562,0.007-0.861-0.135c-0.251-0.119-0.622-0.099-0.932,0.023C6.236,12.005,6.2,11.909,6.188,11.802z"/>
	<path id="XMLID_461_" fill="#E74159" d="M13.161,13.2c-0.37-0.333-0.724-0.69-1.226-0.827c0.002-0.153,0.087-0.226,0.232-0.243
		c0.403,0.273,0.807,0.547,1.21,0.82C13.33,13.054,13.252,13.133,13.161,13.2z"/>
	<path id="XMLID_460_" fill="#E0465C" d="M7.408,10.763c-0.289-0.018-0.578-0.038-0.867-0.053c-0.211-0.011-0.421-0.014-0.576,0.169
		c-0.003-0.033-0.007-0.065-0.01-0.098c-0.035-0.075-0.022-0.153-0.017-0.23C6,10.456,6.101,10.462,6.194,10.46
		c0.236-0.006,0.476,0.021,0.683-0.136c0.044-0.033,0.117-0.036,0.165-0.009c0.17,0.095,0.234-0.022,0.304-0.138
		c0.036-0.006,0.064,0.006,0.084,0.036C7.499,10.399,7.521,10.584,7.408,10.763z"/>
	<path id="XMLID_459_" fill="#D73D6A" d="M6.071,9.313c0.021,0.155,0.141,0.128,0.242,0.128C6.73,9.44,7.15,9.465,7.564,9.384
		c0.083,0.143,0.038,0.258-0.075,0.36C7.07,9.676,6.655,9.792,6.236,9.772C6.151,9.768,6.065,9.803,5.999,9.721
		C5.989,9.662,5.98,9.603,6.015,9.549C6.012,9.465,6.011,9.382,6.071,9.313z"/>
	<path id="XMLID_458_" fill="#EF6240" d="M8.262,13.354c-0.309-0.019-0.622,0.044-0.928-0.047c-0.049-0.015-0.089,0.019-0.116,0.063
		c-0.154-0.118-0.291-0.251-0.389-0.421c0.149-0.089,0.32-0.026,0.438,0.021C7.596,13.102,7.976,13.111,8.262,13.354z"/>
	<path id="XMLID_457_" fill="#DA4564" d="M6.015,9.549c0.001,0.06,0.003,0.12,0.004,0.181c0.096,0.166,0.243,0.217,0.428,0.206
		c0.14-0.008,0.282-0.011,0.421,0.013c0.107,0.019,0.2,0.059,0.21,0.188c-0.044,0.128-0.158,0.122-0.261,0.132
		c-0.124,0.011-0.25,0.015-0.373,0.003c-0.224-0.022-0.393,0.041-0.479,0.263c-0.003,0.082-0.007,0.164-0.01,0.246
		C5.863,10.365,5.902,9.955,6.015,9.549z"/>
	<path id="XMLID_456_" fill="#EE5A43" d="M6.64,12.683c0.167-0.203,0.405-0.097,0.606-0.121c0.178-0.021,0.369,0.054,0.559,0.048
		c0.107-0.003,0.129,0.096,0.169,0.168c-0.038,0-0.077,0-0.115,0c-0.388,0.026-0.778-0.096-1.166,0.006
		C6.646,12.766,6.641,12.725,6.64,12.683z"/>
	<path id="XMLID_455_" fill="#FAA243" d="M10.218,17.093c-0.019,0-0.038,0-0.057,0c-0.234,0.162-0.498,0.047-0.745,0.083
		c-0.236,0.015-0.469,0.007-0.693-0.082c-0.228-0.032-0.467,0.066-0.687-0.061c0.727,0.001,1.453,0.002,2.18,0.004
		c0.02,0.012,0.027,0.024,0.021,0.037C10.231,17.087,10.224,17.093,10.218,17.093z"/>
	<path id="XMLID_454_" fill="#F99042" d="M10.218,17.093c0-0.019-0.001-0.038-0.002-0.057c0.537,0,1.073,0,1.61,0
		c0.021,0.012,0.028,0.024,0.022,0.037c-0.006,0.013-0.012,0.02-0.019,0.02c-0.077,0-0.153,0-0.23,0c-0.173,0-0.345,0-0.518,0
		C10.793,17.094,10.506,17.093,10.218,17.093z"/>
	<path id="XMLID_453_" fill="#C9387F" d="M7.284,7.716C7.136,7.793,6.987,7.867,6.818,7.77c0.075-0.082,0.151-0.164,0.226-0.246
		C7.092,7.628,7.253,7.59,7.284,7.716z"/>
	<path id="XMLID_452_" fill="#993CA1" d="M4.358,4.623C4.41,4.494,4.491,4.398,4.639,4.379C4.555,4.472,4.482,4.577,4.358,4.623z"/>
	<path id="XMLID_451_" fill="#CB358F" d="M13.645,6.572c0.128,0.038,0.21,0.121,0.248,0.248C13.782,6.767,13.699,6.684,13.645,6.572
		z"/>
	<path id="XMLID_450_" fill="#CB358F" d="M13.951,6.856c0.131-0.002,0.253,0.021,0.35,0.119C14.166,6.986,14.05,6.944,13.951,6.856z
		"/>
	<path id="XMLID_449_" fill="#CB358F" d="M13.488,6.168c0.022-0.002,0.045-0.004,0.067-0.005c0.018,0.117,0.036,0.235,0.055,0.352
		C13.52,6.416,13.483,6.299,13.488,6.168z"/>
	<path id="XMLID_448_" fill="#F27A47" d="M11.829,17.093c0-0.019-0.001-0.038-0.003-0.057c0.114-0.001,0.229-0.003,0.343-0.004
		c0.002,0.02,0.003,0.041,0.005,0.061C12.059,17.093,11.944,17.093,11.829,17.093z"/>
	<path id="XMLID_447_" fill="#CB358F" d="M14.299,6.972c0.102,0.001,0.204,0.001,0.306,0.002C14.503,7.023,14.401,7.03,14.299,6.972
		z"/>
	<path id="XMLID_446_" fill="#F99541" d="M8.722,17.094c0.23,0,0.46,0,0.69,0c0.218,0.055,0.423,0.15,0.636,0.221
		c0.121,0.04,0.242,0.073,0.227,0.239c-0.079,0.008-0.17-0.027-0.23,0.058c-0.375-0.026-0.692-0.22-1.023-0.366
		C8.923,17.201,8.747,17.285,8.722,17.094z"/>
	<path id="XMLID_445_" fill="#FAA045" d="M9.815,17.956c-0.123,0.004-0.248,0.011-0.23-0.173
		C9.702,17.788,9.765,17.864,9.815,17.956z"/>
	<path id="XMLID_444_" fill="#F99C48" d="M10.16,18.129c-0.136,0.022-0.188-0.07-0.23-0.173
		C10.047,17.961,10.11,18.037,10.16,18.129z"/>
	<path id="XMLID_443_" fill="#9F3AA6" d="M8.032,3.516C8.051,3.458,8.07,3.401,8.089,3.343C8.095,3.331,8.101,3.32,8.106,3.308
		C8.234,3.233,8.422,3.3,8.511,3.134C8.564,3.108,8.62,3.099,8.678,3.096c0.245,0.006,0.483-0.007,0.707-0.128
		c0.116-0.062,0.254-0.055,0.386-0.037c0.015,0.003,0.029,0.006,0.044,0.009c0.307,0,0.614,0,0.921,0c0,0.019,0,0.038,0,0.058
		c-0.045,0.138-0.141,0.175-0.283,0.178c-0.155,0.003-0.322-0.062-0.465,0.052c-0.24-0.081-0.45,0.079-0.68,0.084
		C9.224,3.313,9.14,3.338,9.056,3.342C8.89,3.351,8.74,3.337,8.586,3.471C8.446,3.593,8.219,3.499,8.032,3.516z"/>
	<path id="XMLID_442_" fill="#983BA8" d="M8.665,3.171c-0.058,0-0.115,0-0.173,0C8.39,3.304,8.175,3.172,8.089,3.343c0,0,0,0,0,0
		c-0.364,0-0.729,0-1.093,0c0.067-0.139,0.181-0.191,0.329-0.172c0.198,0.026,0.327-0.067,0.419-0.231c0.173,0.055,0.345,0,0.518,0
		c0.331-0.032,0.666,0.067,0.992-0.147c0.148-0.097,0.409-0.022,0.619-0.025C9.854,2.825,9.834,2.883,9.815,2.941v0
		C9.482,2.94,9.171,3.091,8.837,3.084C8.763,3.083,8.711,3.12,8.665,3.171z"/>
	<path id="XMLID_441_" fill="#9B3EAB" d="M10.506,2.71c0.075-0.159,0.221-0.104,0.345-0.115C10.76,2.707,10.635,2.715,10.506,2.71z"
		/>
	<path id="XMLID_440_" fill="#F99042" d="M10.276,17.554c-0.062-0.121-0.161-0.158-0.295-0.179
		c-0.212-0.034-0.399-0.145-0.568-0.281c0.249,0,0.499,0,0.748,0c0.008,0.061,0.035,0.119,0.101,0.109
		c0.18-0.027,0.292,0.087,0.417,0.179c0.111,0.184,0.269,0.345,0.288,0.575C10.767,17.769,10.575,17.57,10.276,17.554z"/>
	<path id="XMLID_439_" fill="#CE318D" d="M17.755,8.694c-0.173-0.048-0.312-0.17-0.496-0.204c-0.108-0.02-0.148-0.139-0.137-0.256
		c0.054,0.016,0.108,0.042,0.162,0.045C17.552,8.293,17.723,8.413,17.755,8.694z"/>
	<path id="XMLID_438_" fill="#953BA4" d="M3.89,4.609c-0.042,0.104-0.146,0.125-0.23,0.173C3.668,4.633,3.766,4.603,3.89,4.609z"/>
	<path id="XMLID_437_" fill="#CB3181" d="M9.412,7.744C9.418,7.609,9.33,7.598,9.226,7.6C9.02,7.603,8.814,7.601,8.607,7.601
		c0.057-0.108,0.148-0.146,0.267-0.18C9.243,7.316,9.602,7.175,9.988,7.14c0.339,0.128,0.691,0.024,1.036,0.058
		c-0.001,0.157-0.04,0.261-0.235,0.203c-0.116-0.035-0.201,0.015-0.225,0.142c-0.022,0.046-0.043,0.092-0.065,0.139
		C10.14,7.756,9.779,7.798,9.412,7.744z"/>
	<path id="XMLID_435_" fill="#EE5A43" d="M9.081,12.888c0.211,0.058,0.423,0.116,0.634,0.173c-0.34,0.019,0.053,0.22-0.073,0.293
		c-0.112-0.07-0.237-0.062-0.359-0.056c-0.109,0.005-0.202-0.02-0.29-0.09c-0.182-0.146-0.356-0.304-0.625-0.274
		c-0.083,0.009-0.18-0.056-0.223-0.155c0.246,0.013,0.503-0.049,0.724,0.134C8.908,12.944,9.01,12.898,9.081,12.888z"/>
	<path id="XMLID_434_" fill="#EF5E41" d="M10.276,14.044c-0.29,0.006-0.514-0.123-0.69-0.345
		C9.882,13.68,10.124,13.772,10.276,14.044z"/>
	<path id="XMLID_433_" fill="#D93F66" d="M7.457,9.729c-0.022,0.154-0.043,0.307-0.065,0.461c0,0-0.025,0-0.025,0H7.341
		c-0.114,0.073-0.204,0.02-0.288-0.058C7,10.012,6.893,10.016,6.786,10.017C6.624,10.018,6.46,10.003,6.3,10.02
		C6.066,10.046,5.985,9.95,6.019,9.729C6.462,9.7,6.905,9.674,7.348,9.638C7.43,9.632,7.447,9.667,7.457,9.729z"/>
	<path id="XMLID_432_" fill="#DD445F" d="M7.054,10.132c0.096,0.019,0.192,0.038,0.288,0.058c0,0.067,0.003,0.134-0.002,0.2
		c-0.01,0.124-0.053,0.197-0.171,0.078c-0.129-0.131-0.242-0.175-0.366,0.011c-0.07,0.104-0.194,0.05-0.294,0.054
		c-0.181,0.007-0.363,0.002-0.544,0.002C5.909,10.257,6.02,10.172,6.3,10.181C6.549,10.189,6.81,10.258,7.054,10.132z"/>
	<path id="XMLID_431_" fill="#9D3AA9" d="M8.665,3.171C8.658,3.055,8.702,2.991,8.828,2.998c0.331,0.017,0.655-0.095,0.987-0.057
		C9.429,3.003,9.077,3.237,8.665,3.171z"/>
	<path id="XMLID_430_" fill="#9B3CA5" d="M8.089,3.343C8.135,3.079,8.346,3.2,8.492,3.171C8.5,3.283,8.462,3.35,8.334,3.344
		C8.253,3.34,8.171,3.287,8.089,3.343z"/>
</g>
</svg>
