<?xml version="1.0" encoding="utf-8"?>
<!-- Generator: Adobe Illustrator 19.0.0, SVG Export Plug-In . SVG Version: 6.00 Build 0)  -->
<svg version="1.1" id="Layer_1" xmlns="http://www.w3.org/2000/svg" xmlns:xlink="http://www.w3.org/1999/xlink" x="0px" y="0px"
	 viewBox="0 0 20 20" enable-background="new 0 0 20 20" xml:space="preserve">
<g id="tw">
	<g id="XMLID_19_">
		<path id="XMLID_20_" fill-rule="evenodd" clip-rule="evenodd" fill="#00AAEC" d="M18,4.657c-0.588,0.282-1.221,0.472-1.885,0.557
			c0.678-0.438,1.197-1.13,1.443-1.955c-0.635,0.404-1.337,0.699-2.086,0.856C14.875,3.429,14.022,3,13.076,3
			c-1.811,0-3.281,1.582-3.281,3.534c0,0.277,0.028,0.546,0.085,0.805C7.152,7.191,4.734,5.786,3.114,3.646
			C2.831,4.169,2.669,4.776,2.669,5.424c0,1.226,0.58,2.308,1.46,2.942C3.593,8.349,3.085,8.187,2.642,7.925v0.043
			c0,1.713,1.131,3.142,2.634,3.466c-0.275,0.083-0.565,0.124-0.865,0.124c-0.211,0-0.418-0.021-0.618-0.062
			c0.417,1.403,1.629,2.426,3.066,2.453c-1.123,0.948-2.539,1.514-4.077,1.514c-0.265,0-0.527-0.016-0.783-0.049
			C3.452,16.414,5.179,17,7.032,17c6.039,0,9.34-5.385,9.34-10.056c0-0.153-0.003-0.306-0.008-0.458
			C17.004,5.988,17.561,5.366,18,4.657z"/>
	</g>
</g>
</svg>
