<?xml version="1.0" encoding="utf-8"?>
<!-- Generator: Adobe Illustrator 19.0.0, SVG Export Plug-In . SVG Version: 6.00 Build 0)  -->
<svg version="1.1" id="Layer_1" xmlns="http://www.w3.org/2000/svg" xmlns:xlink="http://www.w3.org/1999/xlink" x="0px" y="0px"
	 viewBox="0 0 20 20" enable-background="new 0 0 20 20" xml:space="preserve">
<g id="XMLID_3_">
	<g id="Rounded_Rectangle_2">
		<g id="XMLID_20_">
			<path id="XMLID_21_" fill="#FDA82E" d="M15.5,14.5c0,0-1-0.607-1-2.4V7.5c0-2.761-2.239-5-5-5s-5,2.239-5,5v5c0,1.495-1,2-1,2
				c-0.552,0-1,0.448-1,1c0,0.552,0.448,1,1,1h4c0,1.105,0.896,2,2,2s2-0.895,2-2h4c0.552,0,1-0.448,1-1
				C16.5,14.948,16.052,14.5,15.5,14.5z"/>
		</g>
	</g>
	<circle id="XMLID_1_" fill="#FFFFFF" cx="14.917" cy="4.5" r="3.833"/>
	<circle id="XMLID_2_" fill="#FF3E2A" cx="14.917" cy="4.5" r="2.167"/>
</g>
</svg>
