<?xml version="1.0" encoding="UTF-8"?>
<svg width="21px" height="24px" viewBox="0 0 21 24" version="1.1" xmlns="http://www.w3.org/2000/svg" xmlns:xlink="http://www.w3.org/1999/xlink">
    <!-- Generator: Sketch 42 (36781) - http://www.bohemiancoding.com/sketch -->
    <title>apple_logo</title>
    <desc>Created with Sketch.</desc>
    <defs></defs>
    <g id="Boostrap3-grid-system-layouts" stroke="none" stroke-width="1" fill="none" fill-rule="evenodd">
        <g id="Heros" transform="translate(-843.000000, -8385.000000)" fill="#191B1F">
            <g id="hero-10" transform="translate(100.000000, 8120.000000)">
                <g id="app-store" transform="translate(712.000000, 248.000000)">
                    <path d="M45.1093073,20.834681 C45.9697353,19.8195475 46.5471926,18.40897 46.3892556,17 C45.1545497,17.0474211 43.6533251,17.8069628 42.7698647,18.8180776 C41.976889,19.719079 41.2818015,21.1537689 41.4660614,22.5313927 C42.8447203,22.63588 44.2529923,21.8482071 45.1093073,20.834681 M51.5,34.6044892 C51.4695642,34.6864715 50.9825916,36.3269209 49.7972411,38.0155951 C48.7764084,39.47922 47.7119784,40.9380223 46.0371875,40.9669573 C44.3953002,40.9983034 43.8663756,40.0153198 41.9859375,40.0153198 C40.106322,40.0153198 39.5189936,40.9380223 37.9626555,40.9983034 C36.3454459,41.060192 35.1189659,39.4173314 34.0849717,37.9609403 C31.9733862,34.981447 30.3644024,29.5392703 32.5253433,25.8693576 C33.6029347,24.0448499 35.5220344,22.8922755 37.6081197,22.8609294 C39.1973614,22.8352094 40.6928279,23.9033903 41.6626601,23.9033903 C42.6333149,23.9033903 44.4504137,22.6117675 46.3645779,22.801452 C47.1624891,22.8368169 49.4114469,23.1173249 50.8575581,25.1821532 C50.7382827,25.256098 48.1734507,26.7124891 48.2014188,29.7498522 C48.2334997,33.381185 51.4621609,34.5900218 51.5,34.6044892" id="apple_logo"></path>
                </g>
            </g>
        </g>
    </g>
</svg>