<?xml version="1.0" encoding="utf-8"?>
<!-- Generator: Adobe Illustrator 19.0.0, SVG Export Plug-In . SVG Version: 6.00 Build 0)  -->
<svg version="1.1" id="Layer_1" xmlns="http://www.w3.org/2000/svg" xmlns:xlink="http://www.w3.org/1999/xlink" x="0px" y="0px"
	 viewBox="0 0 24 24" enable-background="new 0 0 24 24" xml:space="preserve">
<g id="Rounded_Rectangle_4">
	<g id="XMLID_50_">
		<path id="XMLID_51_" fill="#2A2C38" d="M17.5,11.5h-0.642l-5.498-5.498c-0.042-0.075-0.08-0.153-0.144-0.217
			c-0.197-0.197-0.457-0.284-0.715-0.274c-0.258-0.01-0.518,0.077-0.715,0.274C9.721,5.849,9.683,5.926,9.641,6.002L4.142,11.5H3.5
			c-0.552,0-1,0.448-1,1c0,0.146,0.034,0.282,0.09,0.407L4.5,21.5h12l1.91-8.593c0.056-0.125,0.09-0.261,0.09-0.407
			C18.5,11.948,18.052,11.5,17.5,11.5z M10.5,18.5c-1.105,0-2-0.895-2-2c0-1.104,0.895-2,2-2s2,0.895,2,2
			C12.5,17.604,11.605,18.5,10.5,18.5z M6.858,11.5L10.5,7.857l3.642,3.643H6.858z"/>
	</g>
</g>
<g id="Ellipse_3">
	<g id="XMLID_26_">
		<circle id="XMLID_27_" fill-rule="evenodd" clip-rule="evenodd" fill="#FF3056" cx="18.5" cy="5.5" r="3"/>
	</g>
</g>
</svg>
