<?xml version="1.0" encoding="utf-8"?>
<!-- Generator: Adobe Illustrator 19.0.0, SVG Export Plug-In . SVG Version: 6.00 Build 0)  -->
<svg version="1.1" id="Layer_1" xmlns="http://www.w3.org/2000/svg" xmlns:xlink="http://www.w3.org/1999/xlink" x="0px" y="0px"
	 viewBox="0 0 20 20" enable-background="new 0 0 20 20" xml:space="preserve">
<g id="Rounded_Rectangle_1">
	<g id="XMLID_45_">
		<path id="XMLID_46_" fill="#18D989" d="M17,5h-2l-2-2H7L5,5H3C1.895,5,1,5.895,1,7v8c0,1.104,0.896,2,2,2h14c1.104,0,2-0.896,2-2
			V7C19,5.895,18.105,5,17,5z M10,15c-2.209,0-4-1.791-4-4c0-2.209,1.791-4,4-4c2.209,0,4,1.791,4,4C14,13.209,12.209,15,10,15z
			 M10,9c-1.105,0-2,0.896-2,2c0,1.104,0.895,2,2,2c1.105,0,2-0.896,2-2C12,9.895,11.105,9,10,9z"/>
	</g>
</g>
</svg>
