<?xml version="1.0" encoding="utf-8"?>
<!-- Generator: Adobe Illustrator 19.0.0, SVG Export Plug-In . SVG Version: 6.00 Build 0)  -->
<svg version="1.1" id="Layer_1" xmlns="http://www.w3.org/2000/svg" xmlns:xlink="http://www.w3.org/1999/xlink" x="0px" y="0px"
	 viewBox="0 0 54 54" enable-background="new 0 0 54 54" xml:space="preserve">
<g id="Rectangle_3_1_">
	<g id="XMLID_22_">
		<path id="XMLID_23_" fill-rule="evenodd" clip-rule="evenodd" fill="#3A97FF" d="M19,6v12h16v12h5l7,5c0,0.552,0.448,1,1,1
			c0.552,0,1-0.448,1-1V6H19z"/>
	</g>
</g>
<g id="Shape_2">
	<g id="XMLID_50_">
		<path id="XMLID_51_" fill-rule="evenodd" clip-rule="evenodd" fill="#070057" d="M48,5H20c-1.104,0-2,0.896-2,2v10H6
			c-1.104,0-2,0.896-2,1.999v27.996C4,48.185,4.976,49,6.01,49c0.424,0,0.858-0.138,1.24-0.442L14,43h20c1.104,0,2-0.738,2-1.842V31
			h4l6.75,5.558C47.132,36.862,47.566,37,47.99,37c1.034,0,2.01-0.814,2.01-2.004V7C50,5.896,49.104,5,48,5z M34,41H13.271L6,46.996
			V18.999h28V41z M48,34.996L40.729,29H36v-10C36,17.896,35.104,17,34,17H20V7h28V34.996z"/>
	</g>
</g>
</svg>
