<?xml version="1.0" encoding="utf-8"?>
<!-- Generator: Adobe Illustrator 19.0.0, SVG Export Plug-In . SVG Version: 6.00 Build 0)  -->
<svg version="1.1" id="Layer_1" xmlns="http://www.w3.org/2000/svg" xmlns:xlink="http://www.w3.org/1999/xlink" x="0px" y="0px"
	 viewBox="0 0 20 20" enable-background="new 0 0 20 20" xml:space="preserve">
<g id="Rounded_Rectangle_5_2_">
	<g id="XMLID_24_">
		<path id="XMLID_25_" fill-rule="evenodd" clip-rule="evenodd" fill="#18D989" d="M16,2H4C2.895,2,2,2.895,2,4v12
			c0,1.105,0.896,2,2,2h12c1.105,0,2-0.895,2-2V4C18,2.895,17.105,2,16,2z"/>
	</g>
</g>
<g id="Shape_1_2_">
	<g id="XMLID_26_">
		<path id="XMLID_27_" fill-rule="evenodd" clip-rule="evenodd" fill="#FFFFFF" d="M13.714,7.288c-0.379-0.377-0.992-0.377-1.371,0
			l-3.344,3.344L7.657,9.288c-0.379-0.378-0.992-0.378-1.371,0c-0.379,0.379-0.379,0.993,0,1.372l1.888,1.887
			c0.036,0.059,0.063,0.119,0.112,0.17c0.197,0.196,0.456,0.285,0.714,0.279c0.258,0.006,0.518-0.084,0.715-0.279
			c0.049-0.051,0.075-0.111,0.112-0.17l3.888-3.888C14.093,8.281,14.093,7.667,13.714,7.288z"/>
	</g>
</g>
</svg>
