<?xml version="1.0" encoding="utf-8"?>
<!-- Generator: Adobe Illustrator 19.0.0, SVG Export Plug-In . SVG Version: 6.00 Build 0)  -->
<svg version="1.1" id="Layer_1" xmlns="http://www.w3.org/2000/svg" xmlns:xlink="http://www.w3.org/1999/xlink" x="0px" y="0px"
	 viewBox="0 0 54 54" enable-background="new 0 0 54 54" xml:space="preserve">
<g id="Rectangle_4">
	<g id="XMLID_22_">
		<polygon id="XMLID_23_" fill-rule="evenodd" clip-rule="evenodd" fill="#3A97FF" points="4,9 4,13 27,27 50,13 50,9 		"/>
	</g>
</g>
<g id="Shape_3">
	<g id="XMLID_50_">
		<path id="XMLID_51_" fill-rule="evenodd" clip-rule="evenodd" fill="#070057" d="M49,8H5c-1.104,0-2,0.896-2,2v34
			c0,1.104,0.896,2,2,2h44c1.104,0,2-0.897,2-2V10C51,8.896,50.104,8,49,8z M49,44H5V15.166l20.992,12.246
			c0.312,0.181,0.66,0.271,1.008,0.271c0.348,0,0.696-0.09,1.008-0.271L49,15.166V44z M49,12.852L27,25.684L5,12.852V10h44V12.852z"
			/>
	</g>
</g>
</svg>
