<?xml version="1.0" encoding="utf-8"?>
<!-- Generator: Adobe Illustrator 19.0.0, SVG Export Plug-In . SVG Version: 6.00 Build 0)  -->
<svg version="1.1" id="Layer_1" xmlns="http://www.w3.org/2000/svg" xmlns:xlink="http://www.w3.org/1999/xlink" x="0px" y="0px"
	 viewBox="0 0 80 80" enable-background="new 0 0 80 80" xml:space="preserve">
<g id="Rectangle_18">
	<g id="XMLID_16_">
		<rect id="XMLID_17_" x="10" y="22" fill-rule="evenodd" clip-rule="evenodd" fill="#3A97FF" width="60" height="12"/>
	</g>
</g>
<g id="Shape_11">
	<g id="XMLID_98_">
		<path id="XMLID_99_" fill-rule="evenodd" clip-rule="evenodd" fill="#070057" d="M70,19.001H55v-6c0-1.656-1.344-3-3-3H28
			c-1.656,0-3,1.344-3,3v6H10c-1.656,0-3,1.344-3,3v45C7,68.657,8.344,70,10,70h60c1.656,0,3-1.344,3-2.999V22
			C73,20.345,71.656,19.001,70,19.001z M28,13.001h24v6H28V13.001z M19,67.001h-9v-30h9V67.001z M19,34h-9V22h9V34z M58,67.001H22
			v-30h9v6C31,44.656,32.344,46,34,46h12c1.656,0,3-1.344,3-2.999v-6h9V67.001z M34,43v-6h12v6H34z M58,34H22V22h36V34z M70,67.001
			h-9v-30h9V67.001z M70,34h-9V22h9V34z"/>
	</g>
</g>
</svg>
