<?xml version="1.0" encoding="utf-8"?>
<!-- Generator: Adobe Illustrator 19.0.0, SVG Export Plug-In . SVG Version: 6.00 Build 0)  -->
<svg version="1.1" id="Layer_1" xmlns="http://www.w3.org/2000/svg" xmlns:xlink="http://www.w3.org/1999/xlink" x="0px" y="0px"
	 viewBox="0 0 30 20" enable-background="new 0 0 30 20" xml:space="preserve">
<g id="g_x2B__8_">
	<g id="XMLID_35_">
		<path id="XMLID_36_" fill-rule="evenodd" clip-rule="evenodd" fill="#FFFFFF" d="M10.987,8.615v2.771c0,0,2.685-0.003,3.778-0.003
			c-0.592,1.797-1.512,2.776-3.778,2.776c-2.292,0-4.081-1.862-4.081-4.159c0-2.297,1.789-4.158,4.081-4.158
			c1.212,0,1.995,0.427,2.713,1.021c0.575-0.576,0.527-0.658,1.989-2.041C14.448,3.69,12.798,3,10.987,3C7.128,3,4,6.134,4,10
			c0,3.866,3.128,7,6.987,7c5.769,0,7.179-5.031,6.711-8.385H10.987z M23.578,8.753V6.327H21.85v2.426h-2.491v1.732h2.491v2.495
			h1.728v-2.495H26V8.753H23.578z"/>
	</g>
</g>
</svg>
