<?xml version="1.0" encoding="utf-8"?>
<!-- Generator: Adobe Illustrator 19.0.0, SVG Export Plug-In . SVG Version: 6.00 Build 0)  -->
<svg version="1.1" id="Layer_1" xmlns="http://www.w3.org/2000/svg" xmlns:xlink="http://www.w3.org/1999/xlink" x="0px" y="0px"
	 viewBox="0 0 90 45" enable-background="new 0 0 90 45" xml:space="preserve">
<g id="Shape_3">
	<g id="XMLID_43_">
		<path id="XMLID_44_" fill-rule="evenodd" clip-rule="evenodd" fill="#FF5B3C" d="M14.463,27.909
			c0-8.665,6.75-15.689,15.398-15.689c4.573,0,7.526,1.61,10.235,3.854c2.169-2.172,1.987-2.482,7.504-7.701
			C42.918,4.104,36.693,1.5,29.861,1.5C15.303,1.5,3.5,13.324,3.5,27.909c0,5.833,1.892,11.221,5.088,15.591h19.566
			C20.342,42.646,14.463,35.994,14.463,27.909z M77.365,23.202v-9.151H70.84v9.151h-9.396v6.537h9.396v9.413h6.525V29.74H86.5
			v-6.537H77.365z M29.861,22.68v10.459c0,0,10.128-0.013,14.252-0.013c-2.034,6.177-5.11,9.781-12.102,10.375h19.166
			c3.964-6.37,4.895-14.406,4.002-20.82H29.861z"/>
	</g>
</g>
</svg>
