<?xml version="1.0" encoding="utf-8"?>
<!-- Generator: Adobe Illustrator 19.0.0, SVG Export Plug-In . SVG Version: 6.00 Build 0)  -->
<svg version="1.1" id="Layer_1" xmlns="http://www.w3.org/2000/svg" xmlns:xlink="http://www.w3.org/1999/xlink" x="0px" y="0px"
	 viewBox="0 0 20 20" enable-background="new 0 0 20 20" xml:space="preserve">
<g id="insta_8_">
	<g id="XMLID_71_">
		<path id="XMLID_72_" fill="#FFFFFF" d="M10.001,6.333c-2.269,0-4.108,1.84-4.108,4.108c0,2.269,1.839,4.109,4.108,4.109
			c2.269,0,4.108-1.84,4.108-4.109C14.109,8.173,12.27,6.333,10.001,6.333z M10.001,13.108c-1.473,0-2.667-1.194-2.667-2.667
			c0-1.472,1.194-2.667,2.667-2.667c1.472,0,2.666,1.195,2.666,2.667C12.667,11.914,11.473,13.108,10.001,13.108z M14.272,5.211
			c-0.531,0-0.961,0.43-0.961,0.96c0,0.53,0.43,0.96,0.961,0.96c0.529,0,0.959-0.43,0.959-0.96
			C15.231,5.64,14.801,5.211,14.272,5.211z M17.952,7.142c-0.038-0.851-0.174-1.433-0.372-1.941
			c-0.204-0.526-0.478-0.973-0.922-1.417c-0.445-0.445-0.891-0.719-1.418-0.923c-0.508-0.197-1.09-0.333-1.941-0.372
			c-0.853-0.039-1.125-0.048-3.298-0.048c-2.173,0-2.445,0.009-3.298,0.048C5.851,2.528,5.269,2.664,4.76,2.861
			C4.234,3.065,3.788,3.34,3.343,3.784C2.898,4.228,2.625,4.675,2.42,5.201C2.223,5.71,2.087,6.292,2.049,7.142
			C2.01,7.996,2.001,8.268,2.001,10.441c0,2.173,0.009,2.445,0.048,3.299c0.039,0.851,0.174,1.432,0.372,1.941
			c0.205,0.527,0.478,0.973,0.923,1.417c0.445,0.444,0.891,0.719,1.417,0.923c0.509,0.197,1.09,0.333,1.942,0.372
			c0.853,0.039,1.126,0.048,3.298,0.048c2.173,0,2.445-0.009,3.298-0.048c0.852-0.039,1.434-0.175,1.941-0.372
			c0.527-0.204,0.973-0.479,1.418-0.923c0.444-0.444,0.718-0.89,0.922-1.417c0.198-0.509,0.334-1.091,0.372-1.941
			C17.991,12.886,18,12.614,18,10.441C18,8.268,17.991,7.996,17.952,7.142z M16.512,13.674c-0.035,0.78-0.165,1.204-0.275,1.486
			c-0.144,0.374-0.318,0.64-0.598,0.92c-0.28,0.28-0.547,0.454-0.92,0.599c-0.282,0.109-0.705,0.24-1.485,0.275
			C12.39,16.992,12.137,17,10.001,17s-2.389-0.008-3.233-0.047c-0.78-0.035-1.203-0.166-1.485-0.275
			c-0.373-0.145-0.64-0.318-0.92-0.599c-0.28-0.279-0.453-0.546-0.598-0.92c-0.11-0.281-0.24-0.705-0.275-1.486
			c-0.039-0.844-0.047-1.097-0.047-3.233c0-2.136,0.008-2.389,0.047-3.232c0.035-0.78,0.165-1.204,0.275-1.485
			c0.145-0.374,0.318-0.641,0.598-0.92c0.28-0.28,0.546-0.454,0.92-0.599c0.282-0.109,0.706-0.24,1.485-0.275
			c0.844-0.039,1.097-0.047,3.233-0.047S12.39,3.89,13.234,3.93c0.78,0.035,1.203,0.166,1.485,0.275
			c0.373,0.145,0.64,0.318,0.92,0.599c0.279,0.279,0.453,0.546,0.598,0.92c0.11,0.281,0.24,0.705,0.275,1.485
			c0.039,0.844,0.047,1.097,0.047,3.232C16.559,12.577,16.551,12.83,16.512,13.674z"/>
	</g>
</g>
</svg>
