<?xml version="1.0" encoding="utf-8"?>
<!-- Generator: Adobe Illustrator 19.0.0, SVG Export Plug-In . SVG Version: 6.00 Build 0)  -->
<svg version="1.1" id="Layer_1" xmlns="http://www.w3.org/2000/svg" xmlns:xlink="http://www.w3.org/1999/xlink" x="0px" y="0px"
	 viewBox="0 0 20 20" enable-background="new 0 0 20 20" xml:space="preserve">
<g id="location">
	<g id="XMLID_35_">
		<path id="XMLID_36_" fill-rule="evenodd" clip-rule="evenodd" fill="#FFC025" d="M10,2C6.133,2.005,3,5.12,3,8.963
			c0,5.525,5.02,8.307,6.509,8.952C9.638,17.972,9.775,18,9.912,18c0.029,0,0.059-0.007,0.088-0.008
			C10.029,17.993,10.059,18,10.088,18c0.137,0,0.273-0.028,0.403-0.085C11.981,17.269,17,14.488,17,8.963C17,5.12,13.867,2.005,10,2
			z M10,11C8.896,11,8,10.105,8,9c0-1.106,0.896-2.001,2-2.001c1.104,0,2,0.895,2,2.001C12,10.105,11.105,11,10,11z"/>
	</g>
</g>
</svg>
