<?xml version="1.0" encoding="utf-8"?>
<!-- Generator: Adobe Illustrator 19.0.0, SVG Export Plug-In . SVG Version: 6.00 Build 0)  -->
<svg version="1.1" id="Layer_1" xmlns="http://www.w3.org/2000/svg" xmlns:xlink="http://www.w3.org/1999/xlink" x="0px" y="0px"
	 viewBox="0 0 122 30" enable-background="new 0 0 122 30" xml:space="preserve">
<g id="XMLID_1_">
	<g id="Ellipse_1_8_">
		<g id="XMLID_43_">
			<path id="XMLID_44_" fill="#FFFFFF" d="M1.833,27h6V3h-6V27z M19.833,11c0-4.419-3.582-8-8-8v16
				C16.252,19,19.833,15.418,19.833,11z M11.833,27h8l-8-8V27z"/>
		</g>
	</g>
	<g id="XMLID_2_">
		<path id="XMLID_3_" fill="#FFFFFF" d="M37.269,21.334h-1.531V11.47h3.903c1.989,0,3.268,1.183,3.268,3.035
			c0,1.326-0.711,2.406-1.914,2.816l2.215,4.013h-1.771l-2.01-3.76h-2.16V21.334z M37.269,16.269h2.201
			c1.183,0,1.866-0.629,1.866-1.729c0-1.073-0.725-1.723-1.907-1.723h-2.16V16.269z"/>
		<path id="XMLID_6_" fill="#FFFFFF" d="M50.571,18.716h-3.76l-0.909,2.618H44.33l3.562-9.864h1.647l3.562,9.864h-1.627
			L50.571,18.716z M47.201,17.431h2.98l-1.429-4.17h-0.116L47.201,17.431z"/>
		<path id="XMLID_14_" fill="#FFFFFF" d="M54.816,21.334V11.47h1.531v9.864H54.816z"/>
		<path id="XMLID_16_" fill="#FFFFFF" d="M58.815,21.334V11.47h1.381l5.065,7.007h0.109V11.47h1.49v9.864H65.48l-5.065-7.007h-0.109
			v7.007H58.815z"/>
		<path id="XMLID_18_" fill="#FFFFFF" d="M69.336,21.334V11.47h3.965c1.853,0,2.967,0.943,2.967,2.461
			c0,1.032-0.759,1.955-1.729,2.119v0.116c1.333,0.137,2.222,1.087,2.222,2.372c0,1.736-1.265,2.796-3.37,2.796H69.336z
			 M70.867,15.646h1.818c1.354,0,2.058-0.499,2.058-1.436c0-0.909-0.663-1.442-1.798-1.442h-2.078V15.646z M73.082,20.035
			c1.381,0,2.112-0.561,2.112-1.606c0-1.032-0.759-1.572-2.201-1.572h-2.126v3.179H73.082z"/>
		<path id="XMLID_22_" fill="#FFFFFF" d="M87.52,16.398c0,3.172-1.736,5.175-4.594,5.175c-2.864,0-4.607-1.996-4.607-5.175
			c0-3.186,1.777-5.168,4.607-5.168C85.77,11.23,87.52,13.22,87.52,16.398z M79.884,16.398c0,2.276,1.148,3.746,3.042,3.746
			c1.873,0,3.028-1.47,3.028-3.746c0-2.29-1.155-3.739-3.028-3.739C81.066,12.659,79.884,14.108,79.884,16.398z"/>
		<path id="XMLID_25_" fill="#FFFFFF" d="M92.688,21.334h-1.449l-2.659-9.864h1.593l1.812,7.554h0.096l2.058-7.554h1.422
			l2.071,7.554h0.096l1.805-7.554h1.593l-2.666,9.864h-1.442l-2.119-7.239H94.8L92.688,21.334z"/>
		<path id="XMLID_27_" fill="#FFFFFF" d="M108.355,17.8c0,1.381,0.896,2.338,2.461,2.338c1.572,0,2.468-0.957,2.468-2.338v-6.33
			h1.531v6.467c0,2.14-1.524,3.637-3.999,3.637s-3.992-1.497-3.992-3.637V11.47h1.531V17.8z"/>
		<path id="XMLID_31_" fill="#FFFFFF" d="M117.311,21.334V11.47h1.531v9.864H117.311z"/>
	</g>
</g>
</svg>
