<?xml version="1.0" encoding="utf-8"?>
<!-- Generator: Adobe Illustrator 19.0.0, SVG Export Plug-In . SVG Version: 6.00 Build 0)  -->
<svg version="1.1" id="Layer_1" xmlns="http://www.w3.org/2000/svg" xmlns:xlink="http://www.w3.org/1999/xlink" x="0px" y="0px"
	 viewBox="0 0 68 68" style="enable-background:new 0 0 68 68;" xml:space="preserve">
<style type="text/css">
	.st0{fill:url(#XMLID_3_);}
	.st1{fill:#FFFFFF;}
</style>
<linearGradient id="XMLID_3_" gradientUnits="userSpaceOnUse" x1="33.4375" y1="65.125" x2="33.4375" y2="3">
	<stop  offset="0" style="stop-color:#4641FF"/>
	<stop  offset="1" style="stop-color:#795DFF"/>
</linearGradient>
<path id="XMLID_1_" class="st0" d="M52.3,65.1H14.6c-6.6,0-12-5.4-12-12V15c0-6.6,5.4-12,12-12h37.6c6.6,0,12,5.4,12,12v38.1
	C64.3,59.7,58.8,65.1,52.3,65.1z"/>
<g id="Ellipse_1_4_">
	<g id="XMLID_46_">
		<path id="XMLID_47_" class="st1" d="M20.4,52.1h8v-36h-8V52.1z M46.4,28.1c0-6.6-5.4-12-12-12v24C41.1,40.1,46.4,34.7,46.4,28.1z
			 M34.4,52.1h12l-12-12V52.1z"/>
	</g>
</g>
</svg>
