<?xml version="1.0" encoding="utf-8"?>
<!-- Generator: Adobe Illustrator 19.0.0, SVG Export Plug-In . SVG Version: 6.00 Build 0)  -->
<svg version="1.1" id="Layer_1" xmlns="http://www.w3.org/2000/svg" xmlns:xlink="http://www.w3.org/1999/xlink" x="0px" y="0px"
	 viewBox="0 0 80 80" enable-background="new 0 0 80 80" xml:space="preserve">
<g id="Ellipse_5">
	<g id="XMLID_17_">
		<circle id="XMLID_28_" fill-rule="evenodd" clip-rule="evenodd" fill="#3A97FF" cx="38" cy="40.001" r="34"/>
	</g>
</g>
<g id="Ellipse_4">
	<g id="XMLID_42_">
		<path id="XMLID_43_" fill="#FFFFFF" d="M49,27c0-7.179-4.925-13-11-13s-11,5.821-11,13c0,7.18,4.925,13,11,13S49,34.181,49,27z
			 M38,40c-11.046,0-20,5.373-20,12c0,6.628,8.954,12,20,12s20-5.373,20-12C58,45.373,49.046,40,38,40z"/>
	</g>
</g>
<g id="Shape_10">
	<g id="XMLID_92_">
		<path id="XMLID_93_" fill-rule="evenodd" clip-rule="evenodd" fill="#060057" d="M44.51,39.47C47.807,36.905,50,32.467,50,27.401
			c0-7.953-5.373-14.4-12-14.4s-12,6.446-12,14.4c0,5.067,2.193,9.504,5.49,12.069C23.081,41.234,17,46.306,17,52.3
			c0,7.455,9.402,13.5,21,13.5c11.598,0,21-6.045,21-13.5C59,46.306,52.919,41.234,44.51,39.47z M29,27.401
			c0-6.285,4.038-11.4,9-11.4s9,5.115,9,11.4c0,6.285-4.038,11.4-9,11.4S29,33.686,29,27.401z M38,62.801c-9.756,0-18-4.809-18-10.5
			c0-5.69,8.244-10.5,18-10.5s18,4.81,18,10.5C56,57.991,47.756,62.801,38,62.801z M38,4.001c-19.881,0-36,16.119-36,36
			c0,19.881,16.119,36,36,36s36-16.119,36-36C74,20.119,57.881,4.001,38,4.001z M38,73.001C19.805,73.001,5,58.196,5,40
			C5,21.806,19.805,7.001,38,7.001c18.195,0,33,14.805,33,32.999C71,58.196,56.195,73.001,38,73.001z"/>
	</g>
</g>
</svg>
