<?xml version="1.0" encoding="utf-8"?>
<!-- Generator: Adobe Illustrator 19.0.0, SVG Export Plug-In . SVG Version: 6.00 Build 0)  -->
<svg version="1.1" id="Layer_1" xmlns="http://www.w3.org/2000/svg" xmlns:xlink="http://www.w3.org/1999/xlink" x="0px" y="0px"
	 viewBox="0 0 20 20" enable-background="new 0 0 20 20" xml:space="preserve">
<g id="phone_1_">
	<g id="XMLID_19_">
		<path id="XMLID_20_" fill-rule="evenodd" clip-rule="evenodd" fill="#18D989" d="M17.111,13.12c-1.102,0-2.178-0.177-3.174-0.508
			c-0.31-0.105-0.666-0.025-0.906,0.215l-1.955,1.955c-2.515-1.289-4.578-3.342-5.858-5.858l1.956-1.956
			C7.422,6.72,7.493,6.373,7.396,6.062C7.067,5.066,6.889,4,6.889,2.889C6.889,2.4,6.489,2,6,2H2.889C2.401,2,2,2.4,2,2.889
			C2,11.236,8.765,18,17.111,18C17.599,18,18,17.599,18,17.111V14.01C18,13.519,17.599,13.12,17.111,13.12z"/>
	</g>
</g>
</svg>
