<?xml version="1.0" encoding="utf-8"?>
<!-- Generator: Adobe Illustrator 19.0.0, SVG Export Plug-In . SVG Version: 6.00 Build 0)  -->
<svg version="1.1" id="Layer_1" xmlns="http://www.w3.org/2000/svg" xmlns:xlink="http://www.w3.org/1999/xlink" x="0px" y="0px"
	 viewBox="0 0 54 54" enable-background="new 0 0 54 54" xml:space="preserve">
<g id="Ellipse_1_1_">
	<g id="XMLID_38_">
		<path id="XMLID_39_" fill="#3A97FF" d="M13.568,21.302c2.761,0,5-2.238,5-5c0-2.762-2.239-5-5-5s-5,2.238-5,5
			C8.568,19.064,10.807,21.302,13.568,21.302z M35.568,21.302l-28,20h41v-6L35.568,21.302z"/>
	</g>
</g>
<g id="Shape_6">
	<g id="XMLID_85_">
		<path id="XMLID_86_" fill-rule="evenodd" clip-rule="evenodd" d="M47.568,4.303h-44c-1.104,0-2,0.896-2,2v34
			c0,1.106,0.896,2.001,2,2.001h44c1.107,0,2-0.894,2-2.001v-34C49.568,5.198,48.675,4.303,47.568,4.303z M47.568,40.302H10.704
			l24.642-17.394l12.222,12.224V40.302z M47.568,32.302L36.761,21.495c-0.389-0.387-0.9-0.586-1.414-0.586
			c-0.402,0-0.806,0.12-1.154,0.366L7.236,40.302H3.568v-34h44V32.302z M13.569,22.304c3.314,0,6-2.685,6-6c0-3.314-2.686-6-6-6
			c-3.314,0-6,2.686-6,6C7.569,19.618,10.255,22.304,13.569,22.304z M13.569,12.304c2.206,0,4,1.794,4,3.999c0,2.207-1.794,4-4,4
			c-2.206,0-4-1.794-4-4C9.569,14.098,11.363,12.304,13.569,12.304z"/>
	</g>
</g>
</svg>
