<?xml version="1.0" encoding="utf-8"?>
<!-- Generator: Adobe Illustrator 19.0.0, SVG Export Plug-In . SVG Version: 6.00 Build 0)  -->
<svg version="1.1" id="Layer_1" xmlns="http://www.w3.org/2000/svg" xmlns:xlink="http://www.w3.org/1999/xlink" x="0px" y="0px"
	 viewBox="0 0 54 54" enable-background="new 0 0 54 54" xml:space="preserve">
<g id="Rectangle_2">
	<g id="XMLID_16_">
		<rect id="XMLID_17_" x="7" y="14.375" fill-rule="evenodd" clip-rule="evenodd" fill="#3A97FF" width="40" height="8"/>
	</g>
</g>
<g id="Shape_1">
	<g id="XMLID_98_">
		<path id="XMLID_99_" fill-rule="evenodd" clip-rule="evenodd" fill="#070057" d="M47,12.375H37v-4c0-1.104-0.896-2.001-2-2.001H19
			c-1.103,0-2,0.896-2,2.001v4H7c-1.104,0-2,0.897-2,2v30c0,1.103,0.896,2,2,2h40c1.104,0,2-0.896,2-2v-30
			C49,13.272,48.104,12.375,47,12.375z M19,8.376h16v4H19V8.376z M13,44.375H7v-20h6V44.375z M13,22.375H7v-8h6V22.375z M39,44.375
			H15v-20h6v4c0,1.104,0.896,2,2,2h8c1.104,0,2-0.896,2-2v-4h6V44.375z M23,28.375v-4h8v4H23z M39,22.375H15v-8h24V22.375z
			 M47,44.375h-6v-20h6V44.375z M47,22.375h-6v-8h6V22.375z"/>
	</g>
</g>
</svg>
