<?xml version="1.0" encoding="utf-8"?>
<!-- Generator: Adobe Illustrator 19.0.0, SVG Export Plug-In . SVG Version: 6.00 Build 0)  -->
<svg version="1.1" id="Layer_1" xmlns="http://www.w3.org/2000/svg" xmlns:xlink="http://www.w3.org/1999/xlink" x="0px" y="0px"
	 viewBox="0 0 24 24" enable-background="new 0 0 24 24" xml:space="preserve">
<g id="search_2_">
	<g id="XMLID_35_">
		<path id="XMLID_36_" fill="#FFFFFF" d="M19.7,18.231l-3.08-3.08c0.861-1.163,1.376-2.597,1.376-4.155c0-3.866-3.134-7-7-7
			c-3.866,0-7,3.134-7,7s3.134,7,7,7c1.558,0,2.992-0.515,4.155-1.376l3.08,3.08c0.406,0.406,1.064,0.406,1.469,0
			C20.106,19.294,20.106,18.636,19.7,18.231z M5.996,10.996c0-2.761,2.239-5,5-5s5,2.239,5,5c0,2.761-2.239,5-5,5
			S5.996,13.757,5.996,10.996z"/>
	</g>
</g>
</svg>
