<?xml version="1.0" encoding="utf-8"?>
<!-- Generator: Adobe Illustrator 19.0.0, SVG Export Plug-In . SVG Version: 6.00 Build 0)  -->
<svg version="1.1" id="Layer_1" xmlns="http://www.w3.org/2000/svg" xmlns:xlink="http://www.w3.org/1999/xlink" x="0px" y="0px"
	 viewBox="0 0 20 20" enable-background="new 0 0 20 20" xml:space="preserve">
<g id="search_7_">
	<g id="XMLID_35_">
		<path id="XMLID_36_" fill="#2A2C38" d="M17.7,16.226l-3.08-3.08c0.861-1.163,1.376-2.597,1.376-4.155c0-3.866-3.134-7-7-7
			c-3.866,0-7,3.134-7,7s3.134,7,7,7c1.558,0,2.992-0.515,4.155-1.376l3.08,3.08c0.406,0.406,1.064,0.406,1.469,0
			C18.106,17.29,18.106,16.632,17.7,16.226z M3.996,8.992c0-2.761,2.239-5,5-5c2.761,0,5,2.238,5,5c0,2.761-2.239,5-5,5
			C6.235,13.991,3.996,11.753,3.996,8.992z"/>
	</g>
</g>
</svg>
