<?xml version="1.0" encoding="utf-8"?>
<!-- Generator: Adobe Illustrator 19.0.0, SVG Export Plug-In . SVG Version: 6.00 Build 0)  -->
<svg version="1.1" id="Layer_1" xmlns="http://www.w3.org/2000/svg" xmlns:xlink="http://www.w3.org/1999/xlink" x="0px" y="0px"
	 viewBox="0 0 277 277" enable-background="new 0 0 277 277" xml:space="preserve">
<path id="XMLID_20_" fill="#FEFEFE" d="M138,270.834c30.217,0.055,60.434,0.118,90.651,0.163C242.101,271.017,255.55,271,269,271
	c0.342,1.596-0.893,0.978-1.5,0.979c-86.333,0.022-172.667-0.006-259,0.119c-3.548,0.005-2.474-1.978-2.475-3.598
	C5.995,207.333,6,146.167,6,85c0-24.333-0.017-48.667,0.062-73C6.065,11.05,4.855,9.396,7,9c0,85.272,0.045,170.544-0.115,255.816
	c-0.009,4.95,1.07,6.347,6.213,6.317c39.97-0.24,79.943-0.131,119.915-0.14C134.675,270.993,136.338,270.889,138,270.834z"/>
<g id="XMLID_1_">
	<path id="XMLID_3_" fill="#47A9FE" d="M138.5,212.5c-40.869,0-74-33.131-74-74c0-20.851,8.637-39.674,22.512-53.125
		C73.891,72.251,60.767,59.131,47.654,46C23.99,69.414,9.324,101.905,9.324,137.824C9.324,209.166,67.158,267,138.5,267
		c0.563,0,1.122-0.014,1.683-0.021c0.062-0.75,0.061-1.515,0.063-2.269c0.045-17.418,0.066-34.837,0.074-52.255
		C139.713,212.469,139.111,212.5,138.5,212.5z"/>
	<path id="XMLID_4_" fill="#FEC625" d="M212.461,140.033c-0.819,40.159-33.606,72.467-73.961,72.467
		c-0.156,0-0.31-0.011-0.466-0.012c-0.011,18.169-0.021,36.337-0.032,54.505c0.166,0.001,0.331,0.006,0.498,0.006
		c70.614,0,127.985-56.662,129.148-126.999C249.253,140.011,230.857,140.022,212.461,140.033z"/>
	<path id="XMLID_6_" fill="#FE566D" d="M147.875,8.99c-6.295,0.002-12.589,0.007-18.884,0.008
		C96.451,11.366,67.26,25.789,45.853,47.821c13.115,13.126,26.236,26.245,39.354,39.367C98.669,73.21,117.561,64.5,138.5,64.5
		c40.869,0,74,33.131,74,74c0,1.281-0.033,2.554-0.097,3.818c15.762-0.003,31.524-0.011,47.286-0.049
		c2.677-0.006,5.578,0.521,7.942-1.042c0.029-1.131,0.045-2.265,0.045-3.403C267.676,69.636,214.84,13.793,147.875,8.99z"/>
</g>
</svg>
