<?xml version="1.0" encoding="utf-8"?>
<!-- Generator: Adobe Illustrator 19.0.0, SVG Export Plug-In . SVG Version: 6.00 Build 0)  -->
<svg version="1.1" id="Layer_1" xmlns="http://www.w3.org/2000/svg" xmlns:xlink="http://www.w3.org/1999/xlink" x="0px" y="0px"
	 viewBox="0 0 1389 211" enable-background="new 0 0 1389 211" xml:space="preserve">
<path id="XMLID_33_" fill="#4598FE" d="M1385.05,129.361c-13.038,4.726-26.647,7.315-40.419,7.75
	c-6.408,0.202-11.222,0.766-12.016,8.222c-8.956,7.663-14.542,7.146-21.776-2.021c0.014-6.7,0.004-6.7-6.737-6.983
	c-0.497-0.021-1.023-0.147-1.492-0.268c-13.27-3.429-26.982-5.061-39.92-10.061h-0.001c-4.893-2-9.855-4.54-14.668-7.129
	c-13.756-7.402-24.996-17.877-36.018-28.715c-4.599-5.475-9.205-10.893-13.795-16.375c-10.895-13.011-20.815-26.832-33.127-38.626
	c-9.002-8.624-18.951-15.644-31.218-18.969c-2.732-0.741-3.908-0.823-4.629,2.536c-1.334,6.216-6.013,9.689-11.69,9.622
	c-5.461-0.065-10.119-3.505-11.344-9.431c-0.737-3.566-2.078-3.504-5.031-2.938c-12.719,2.44-24.54,7.178-35.849,13.334
	c-13.607,7.407-26.284,16.332-39.556,24.29c-36.307,21.768-71.878,22.388-106.635-3.492c-5.892-4.387-12.257-7.902-19.381-10.073
	c-3.362-1.025-5.041-0.81-5.915,3.016c-1.184,5.184-5.204,7.672-10.187,8.18c-4.643,0.474-9.133-1.27-10.855-5.567
	c-2.294-5.724-4.529-3.273-7.214-0.89c-13.908,12.345-22.913,28.376-32.845,43.711l0,0c-10.264,14.505-20.621,28.932-34.134,40.713
	c-2.678,1.976-5.355,3.952-8.033,5.928c0,0,0,0,0,0c-1.317,0.337-2.403,1.04-3.278,2.075c-2.204,1.086-4.409,2.171-6.613,3.256
	c0,0,0,0,0,0l0,0c-4.419,1.314-8.773,2.959-13.278,3.829c-3.149,0.608-4.758,1.754-5.649,4.964
	c-1.331,4.797-5.964,7.864-10.743,8.114c-5.355,0.28-10.422-1.674-11.127-6.815c-0.427-3.117-1.643-4.841-3.27-5.91
	c-21.474-2.918-36.491-18.352-40.998-23.548c-7.05-6.105-13.786-12.57-20.96-18.529c-2.057-1.927-4.055-3.92-6.179-5.77
	c-20.398-17.766-43.234-30.209-70.731-32.731c-2.949-0.27-3.887,0.199-4.621,3.101c-1.495,5.911-6.018,9.219-11.519,9.184
	c-5.278-0.033-9.894-3.259-11.214-8.9c-0.794-3.393-2.335-3.504-5.1-3.217c-18.852,1.958-36.664,7.801-54.274,14.389
	c-21.915,8.199-43.171,18.295-66.321,22.918c-1.452-0.106-2.889-0.135-4.152,0.773c-1.302,0.08-2.604,0.159-3.907,0.239l0,0
	c-4.982-0.014-9.964-0.029-14.947-0.043c-19.444-2.573-34.141-13.127-46.429-27.684c-6.654-7.883-13.129-15.919-19.862-23.734
	c-6.465-7.504-13.761-14.001-23.266-17.531c-2.513-0.933-4.427-1.591-5.235,2.263c-1.134,5.407-5.289,8.024-10.499,8.42
	c-4.84,0.367-9.009-1.696-11.031-6.213c-1.392-3.108-2.733-2.46-4.846-1.198c-7.563,4.516-13.54,10.73-18.862,17.609
	c-14.739,19.052-25.762,40.849-42.928,58.11l0,0l0,0c-27.213,23.724-56.44,24.684-87.279,7.764c-3.062-1.68-6.22-3.197-9.393-4.661
	c-9.599-4.432-19.706-7.073-30.195-8.225c-1.768-0.194-3.648-0.946-4.406,2.275c-1.684,7.153-5.573,10.405-11.388,10.644
	c-5.384,0.222-9.563-2.913-11.936-9.415c-0.729-1.998-1.369-2.451-3.508-1.993c-25.091,5.371-47.824,16.04-68.95,30.383
	c-4.012,1.993-8.043,4.967-11.672,7.688V211h1389c0-3.607,0-6.965,0-10.625c0-2,0-4,0-6c0-9,0-18,0-27c0-5.667,0-11.333,0-17
	c0-7.333,0-14.667,0-22C1387,128.698,1386.273,128.918,1385.05,129.361z M132.171,169.121c0.217-0.168,0.426-0.346,0.625-0.535
	C132.654,168.853,132.444,169.039,132.171,169.121z M234.51,140.128c0.501-0.325,1.027-0.425,1.586-0.297
	C235.563,139.965,235.034,140.066,234.51,140.128z M266.374,103.904c0.147-0.107,0.305-0.167,0.473-0.177
	C266.692,103.778,266.534,103.84,266.374,103.904z M285.599,170.14c0.532-0.541,1.173-0.771,1.856-0.869
	C286.895,169.52,286.281,169.809,285.599,170.14z M428.536,194.352c0.099-0.065,0.196-0.136,0.296-0.196
	c0.049,0.095,0.095,0.192,0.133,0.293C428.817,194.406,428.675,194.376,428.536,194.352z M648.955,207.398
	c-0.001-0.031-0.002-0.06-0.003-0.09c0.022,0.01,0.043,0.025,0.065,0.034C648.996,207.362,648.975,207.379,648.955,207.398z
	 M679.206,170.338c-0.113-0.072-0.224-0.139-0.335-0.207c0.127-0.02,0.252-0.043,0.381-0.057
	C679.236,170.164,679.223,170.241,679.206,170.338z M930.897,167.858c-0.112-0.046-0.224-0.094-0.337-0.142l0.458-0.113
	C930.986,167.692,930.949,167.779,930.897,167.858z M991.014,136.826c0.018-0.084,0.021-0.153,0.037-0.234
	c0.045,0.053,0.089,0.101,0.132,0.148C991.126,136.768,991.075,136.798,991.014,136.826z M1005.2,205.887
	c0.341-0.206,0.682-0.438,1.024-0.703C1006.199,205.599,1005.766,205.801,1005.2,205.887z M1025.315,191.878
	c-0.149-0.158-0.297-0.286-0.446-0.428c0.607,0.191,1.203,0.404,1.785,0.631C1026.488,192.244,1025.565,192.143,1025.315,191.878z
	 M1047.128,201.802c0.493,0.096,1.06,0.192,1.671,0.286C1048.236,202.229,1047.631,202.09,1047.128,201.802z M1050.155,192.639
	c0.497,0.186,0.999,0.357,1.505,0.514C1051.134,193.209,1050.626,192.997,1050.155,192.639z M1059.748,193.85
	c-0.077-0.142-0.155-0.278-0.233-0.414c0.234-0.029,0.465-0.068,0.694-0.123C1060.091,193.513,1059.944,193.697,1059.748,193.85z
	 M1064.409,194.92c0.008-0.082,0.021-0.163,0.031-0.245c0.047,0.028,0.096,0.049,0.145,0.072
	C1064.527,194.807,1064.468,194.857,1064.409,194.92z M1082.588,142.603c0.842-0.002,1.679,0.212,1.928,0.999
	C1083.843,143.399,1083.198,143.075,1082.588,142.603z M1135.038,208.114c0-0.038-0.005-0.069-0.006-0.106
	c0.041,0.02,0.078,0.034,0.117,0.053C1135.11,208.079,1135.078,208.097,1135.038,208.114z M1136.17,135.492
	c0.837-0.318,1.676-0.559,2.516-0.747C1137.923,135.316,1137.067,135.549,1136.17,135.492z M1166.094,193.685
	c-0.028-0.005-0.051-0.018-0.077-0.025c0.031-0.003,0.062-0.007,0.093-0.01C1166.105,193.661,1166.099,193.672,1166.094,193.685z
	 M1285.21,206.284c-0.634-0.115-0.922-0.396-1.037-0.759c0.441,0.19,0.871,0.448,1.289,0.782
	C1285.378,206.298,1285.293,206.299,1285.21,206.284z M1336.21,204.837c0.149,0.124,0.296,0.264,0.443,0.418
	C1336.461,205.206,1336.305,205.074,1336.21,204.837z"/>
<circle id="XMLID_2_" fill="#4598FE" cx="95.997" cy="107.997" r="13.831"/>
<circle id="XMLID_24_" fill="#4598FE" cx="1322.997" cy="137.997" r="13.831"/>
<circle id="XMLID_29_" fill="#4598FE" cx="1117.997" cy="15.997" r="13.831"/>
<circle id="XMLID_28_" fill="#4598FE" cx="882.997" cy="38.997" r="13.831"/>
<circle id="XMLID_27_" fill="#4598FE" cx="750.997" cy="144.997" r="13.831"/>
<circle id="XMLID_26_" fill="#4598FE" cx="581.997" cy="63.997" r="13.831"/>
<circle id="XMLID_25_" fill="#4598FE" cx="315.997" cy="31.997" r="13.831"/>
<circle id="XMLID_1_" fill="#FFFFFF" cx="95.997" cy="107.997" r="13.503"/>
<circle id="XMLID_6_" fill="#4598FE" cx="95.997" cy="107.997" r="7.92"/>
<g id="XMLID_5_">
	<circle id="XMLID_8_" fill="#FFFFFF" cx="315.997" cy="31.997" r="13.503"/>
	<circle id="XMLID_7_" fill="#4598FE" cx="315.997" cy="31.997" r="7.92"/>
</g>
<g id="XMLID_9_">
	<circle id="XMLID_11_" fill="#FFFFFF" cx="581.997" cy="63.997" r="13.503"/>
	<circle id="XMLID_10_" fill="#4598FE" cx="581.997" cy="63.997" r="7.92"/>
</g>
<g id="XMLID_12_">
	<circle id="XMLID_14_" fill="#FFFFFF" cx="750.997" cy="144.997" r="13.503"/>
	<circle id="XMLID_13_" fill="#4598FE" cx="750.997" cy="144.997" r="7.92"/>
</g>
<g id="XMLID_15_">
	<circle id="XMLID_17_" fill="#FFFFFF" cx="882.997" cy="38.997" r="13.503"/>
	<circle id="XMLID_16_" fill="#4598FE" cx="882.997" cy="38.997" r="7.92"/>
</g>
<g id="XMLID_18_">
	<circle id="XMLID_20_" fill="#FFFFFF" cx="1117.997" cy="15.997" r="13.503"/>
	<circle id="XMLID_19_" fill="#4598FE" cx="1117.997" cy="15.997" r="7.92"/>
</g>
<g id="XMLID_21_">
	<circle id="XMLID_23_" fill="#FFFFFF" cx="1322.997" cy="137.997" r="13.503"/>
	<circle id="XMLID_22_" fill="#4598FE" cx="1322.997" cy="137.997" r="7.92"/>
</g>
</svg>
