<?xml version="1.0" encoding="utf-8"?>
<!-- Generator: Adobe Illustrator 19.0.0, SVG Export Plug-In . SVG Version: 6.00 Build 0)  -->
<svg version="1.1" id="Layer_1" xmlns="http://www.w3.org/2000/svg" xmlns:xlink="http://www.w3.org/1999/xlink" x="0px" y="0px"
	 viewBox="0 0 54 54" enable-background="new 0 0 54 54" xml:space="preserve">
<g id="Rectangle_6">
	<g id="XMLID_24_">
		<polygon id="XMLID_25_" fill-rule="evenodd" clip-rule="evenodd" fill="#3A97FF" points="22,15.397 22,31.398 36,23.397 		"/>
	</g>
</g>
<g id="Shape_5">
	<g id="XMLID_80_">
		<path id="XMLID_81_" fill-rule="evenodd" clip-rule="evenodd" d="M46,47.397H8c-0.552,0-1,0.449-1,1.001s0.448,1,1,1h38
			c0.552,0,1-0.448,1-1S46.552,47.397,46,47.397z M23.003,32c0.322,0,0.654-0.079,0.968-0.254l11.882-6.599
			c1.372-0.762,1.372-2.736,0-3.499l-11.882-6.599c-0.314-0.176-0.646-0.254-0.968-0.254c-1.046,0-2.004,0.835-2.004,2.002v13.201
			C20.999,31.164,21.957,32,23.003,32z M23.007,16.8l11.874,6.596l-11.882,6.602L23.007,16.8z M49,3.397H5c-1.104,0-2,0.896-2,2v36
			c0,1.104,0.896,2,2,2h44c1.104,0,2-0.896,2-2v-36C51,4.294,50.104,3.397,49,3.397z M49,41.397H5v-36h44V41.397z"/>
	</g>
</g>
</svg>
