<?xml version="1.0" encoding="utf-8"?>
<!-- Generator: Adobe Illustrator 19.0.0, SVG Export Plug-In . SVG Version: 6.00 Build 0)  -->
<svg version="1.1" id="Layer_1" xmlns="http://www.w3.org/2000/svg" xmlns:xlink="http://www.w3.org/1999/xlink" x="0px" y="0px"
	 viewBox="0 0 20 20" enable-background="new 0 0 20 20" xml:space="preserve">
<g id="tw_8_">
	<g id="XMLID_19_">
		<path id="XMLID_20_" fill-rule="evenodd" clip-rule="evenodd" fill="#FFFFFF" d="M17,4.657c-0.588,0.281-1.221,0.472-1.885,0.557
			c0.678-0.437,1.197-1.13,1.443-1.955c-0.635,0.404-1.337,0.699-2.086,0.856C13.875,3.429,13.022,3,12.076,3
			c-1.811,0-3.281,1.582-3.281,3.534c0,0.277,0.028,0.546,0.085,0.805C6.152,7.191,3.734,5.786,2.114,3.645
			C1.831,4.169,1.669,4.777,1.669,5.424c0,1.225,0.58,2.308,1.46,2.941c-0.537-0.017-1.044-0.178-1.487-0.44v0.043
			c0,1.713,1.131,3.142,2.634,3.466c-0.275,0.083-0.565,0.124-0.865,0.124c-0.211,0-0.418-0.022-0.618-0.063
			c0.417,1.403,1.629,2.426,3.066,2.453c-1.123,0.948-2.539,1.513-4.077,1.513c-0.265,0-0.527-0.016-0.783-0.049
			C2.452,16.414,4.179,17,6.032,17c6.039,0,9.34-5.385,9.34-10.055c0-0.153-0.003-0.307-0.008-0.458
			C16.004,5.988,16.561,5.366,17,4.657z"/>
	</g>
</g>
</svg>
