<?xml version="1.0" encoding="utf-8"?>
<!-- Generator: Adobe Illustrator 19.0.0, SVG Export Plug-In . SVG Version: 6.00 Build 0)  -->
<svg version="1.1" id="Layer_1" xmlns="http://www.w3.org/2000/svg" xmlns:xlink="http://www.w3.org/1999/xlink" x="0px" y="0px"
	 viewBox="0 0 54 54" enable-background="new 0 0 54 54" xml:space="preserve">
<g id="Rectangle_5">
	<g id="XMLID_38_">
		<path id="XMLID_39_" fill-rule="evenodd" clip-rule="evenodd" fill="#3A97FF" d="M13.495,37.972l5.507,11.514h14l5.506-11.514
			c-3.107,3.381-7.552,5.513-12.506,5.513C21.048,43.486,16.603,41.353,13.495,37.972z M38.508,14.999L33.002,3.486h-14
			l-5.507,11.514c3.107-3.381,7.552-5.513,12.507-5.513C30.956,9.486,35.401,11.618,38.508,14.999z"/>
	</g>
</g>
<g id="Shape_4_1_">
	<g id="XMLID_79_">
		<path id="XMLID_80_" fill-rule="evenodd" clip-rule="evenodd" fill="#070057" d="M38.926,13.972L34.521,3.697
			c-0.313-0.735-1.037-1.211-1.838-1.211H19.322c-0.8,0-1.524,0.476-1.838,1.211L13.08,13.972c-3.138,3.24-5.078,7.648-5.078,12.514
			c0,4.866,1.94,9.274,5.078,12.514l4.404,10.274c0.314,0.737,1.038,1.212,1.838,1.212h13.362c0.801,0,1.524-0.475,1.838-1.212
			L38.926,39c3.138-3.24,5.076-7.648,5.076-12.514C44.002,21.62,42.063,17.212,38.926,13.972z M19.322,4.486h13.362l2.908,6.786
			c-2.778-1.756-6.06-2.786-9.59-2.786c-3.528,0-6.81,1.029-9.588,2.786L19.322,4.486z M32.683,48.486H19.322l-2.908-6.786
			c2.778,1.756,6.06,2.786,9.588,2.786c3.53,0,6.812-1.03,9.59-2.786L32.683,48.486z M26.002,42.486c-8.822,0-16-7.178-16-16
			c0-8.822,7.178-16,16-16c8.824,0,16,7.179,16,16C42.002,35.308,34.826,42.486,26.002,42.486z M35.003,26.486h-9v-9
			c0-0.552-0.448-1-1-1c-0.552,0-1,0.448-1,1v10c0,0.553,0.448,1,1,1h10c0.552,0,1-0.448,1-1
			C36.003,26.935,35.555,26.486,35.003,26.486z"/>
	</g>
</g>
</svg>
