<?xml version="1.0" encoding="UTF-8"?>
<svg width="68px" height="69px" viewBox="0 0 68 69" version="1.1" xmlns="http://www.w3.org/2000/svg" xmlns:xlink="http://www.w3.org/1999/xlink">
    <!-- Generator: Sketch 46.2 (44496) - http://www.bohemiancoding.com/sketch -->
    <title>Combined Shape</title>
    <desc>Created with Sketch.</desc>
    <defs></defs>
    <g id="Boostrap3-grid-system-layouts" stroke="none" stroke-width="1" fill="none" fill-rule="evenodd">
        <g id="Presentation" transform="translate(-1022.000000, -4400.000000)" fill="#FFFFFF">
            <g id="content" transform="translate(333.000000, 4248.000000)">
                <g id="2" transform="translate(540.000000, 96.500000)">
                    <g id="icon" transform="translate(149.000000, 56.000000)">
                        <path d="M56,20 L63.9901068,20 C66.2047097,20 68,21.7940525 68,24.0098932 L68,63.9901068 C68,66.2047097 66.2059475,68 63.9901068,68 L24.0098932,68 C21.7952903,68 20,66.2059475 20,63.9901068 L20,56 L47.9914846,56 C52.421945,56 56,52.4144655 56,47.9914846 L56,20 Z M2.84217094e-14,3.00261497 C2.84217094e-14,1.34431651 1.33389258,0 3.00261497,0 L44.997385,0 C46.6556835,0 48,1.33389258 48,3.00261497 L48,44.997385 C48,46.6556835 46.6661074,48 44.997385,48 L3.00261497,48 C1.34431651,48 2.84217094e-14,46.6661074 2.84217094e-14,44.997385 L2.84217094e-14,3.00261497 Z" id="Combined-Shape"></path>
                    </g>
                </g>
            </g>
        </g>
    </g>
</svg>