<?xml version="1.0" encoding="UTF-8"?>
<svg width="72px" height="73px" viewBox="0 0 72 73" version="1.1" xmlns="http://www.w3.org/2000/svg" xmlns:xlink="http://www.w3.org/1999/xlink">
    <!-- Generator: Sketch 46.2 (44496) - http://www.bohemiancoding.com/sketch -->
    <title>Combined Shape</title>
    <desc>Created with Sketch.</desc>
    <defs></defs>
    <g id="Boostrap3-grid-system-layouts" stroke="none" stroke-width="1" fill="none" fill-rule="evenodd">
        <g id="Presentation" transform="translate(-1560.000000, -4398.000000)" fill="#FFFFFF">
            <g id="content" transform="translate(333.000000, 4248.000000)">
                <g id="3" transform="translate(1080.000000, 96.500000)">
                    <g id="icon" transform="translate(147.000000, 54.000000)">
                        <path d="M64,72 L59,72 L56,72 L52,72 L38,72 L36,72 C16.118,72 0,55.883 0,36 C0,16.118 16.118,0 36,0 C55.882,0 72,16.118 72,36 L72,38 L72,48 L72,52 L72,61 L72,64 C72,68.418 68.418,72 64,72 Z M50.332,25.2012 C48.73,23.6002 46.134,23.6002 44.532,25.2012 L31.517,38.2182 L26.501,33.2012 C24.899,31.6002 22.303,31.6002 20.701,33.2012 C19.1,34.8032 19.1,37.3992 20.701,39.0012 L28.501,46.8002 C29.331,47.6302 30.428,48.0202 31.517,47.9902 C32.604,48.0202 33.702,47.6302 34.532,46.8002 L50.332,31.0002 C51.934,29.3992 51.934,26.8032 50.332,25.2012 Z" id="Combined-Shape"></path>
                    </g>
                </g>
            </g>
        </g>
    </g>
</svg>