<?xml version="1.0" encoding="UTF-8"?>
<svg width="144px" height="144px" viewBox="0 0 144 144" version="1.1" xmlns="http://www.w3.org/2000/svg" xmlns:xlink="http://www.w3.org/1999/xlink">
    <!-- Generator: Sketch 46.2 (44496) - http://www.bohemiancoding.com/sketch -->
    <title>Combined Shape</title>
    <desc>Created with Sketch.</desc>
    <defs>
        <linearGradient x1="50%" y1="0%" x2="50%" y2="100%" id="linearGradient-1">
            <stop stop-color="#2897FF" offset="0%"></stop>
            <stop stop-color="#3060F8" offset="100%"></stop>
        </linearGradient>
    </defs>
    <g id="Boostrap3-grid-system-layouts" stroke="none" stroke-width="1" fill="none" fill-rule="evenodd">
        <g id="Presentation" transform="translate(-1124.000000, -2839.000000)" fill="url(#linearGradient-1)">
            <g id="built-" transform="translate(0.000000, 2598.000000)">
                <g id="Group" transform="translate(844.000000, 240.000000)">
                    <g id="ps" transform="translate(280.000000, 1.000000)">
                        <path d="M0,24.0010382 C0,10.7456308 10.7498122,0 24.0010382,0 L119.998962,0 C133.254369,0 144,10.7498122 144,24.0010382 L144,119.998962 C144,133.254369 133.250188,144 119.998962,144 L24.0010382,144 C10.7456308,144 0,133.250188 0,119.998962 L0,24.0010382 Z M37.46875,49.90625 L37.46875,95 L46.90625,95 L46.90625,81 L55.8125,81 C65.3125,81 71.90625,74.78125 71.90625,65.5 C71.90625,56.125 65.5625,49.90625 56.28125,49.90625 L37.46875,49.90625 Z M46.90625,57.65625 L53.78125,57.65625 C59.21875,57.65625 62.3125,60.40625 62.3125,65.53125 C62.3125,70.59375 59.15625,73.34375 53.75,73.34375 L46.90625,73.34375 L46.90625,57.65625 Z M78.90625,70.65625 C78.90625,75.96875 82.15625,79.15625 88.84375,80.625 L95.09375,82.03125 C98.125,82.6875 99.4375,83.71875 99.4375,85.40625 C99.4375,87.625 97,89.09375 93.46875,89.09375 C89.84375,89.09375 87.625,87.75 86.9375,85.40625 L78.0625,85.40625 C78.6875,92.03125 84.1875,95.75 93.28125,95.75 C102.3125,95.75 108.46875,91.25 108.46875,84.375 C108.46875,79.21875 105.46875,76.40625 98.78125,74.9375 L92.3125,73.53125 C89.125,72.8125 87.65625,71.78125 87.65625,70.09375 C87.65625,67.90625 90.0625,66.4375 93.3125,66.4375 C96.6875,66.4375 98.78125,67.8125 99.25,70.03125 L107.65625,70.03125 C107.15625,63.4375 102,59.78125 93.25,59.78125 C84.65625,59.78125 78.90625,64.125 78.90625,70.65625 Z" id="Combined-Shape"></path>
                    </g>
                </g>
            </g>
        </g>
    </g>
</svg>