<?xml version="1.0" encoding="UTF-8"?>
<svg width="78px" height="78px" viewBox="0 0 78 78" version="1.1" xmlns="http://www.w3.org/2000/svg" xmlns:xlink="http://www.w3.org/1999/xlink">
    <!-- Generator: Sketch 46.2 (44496) - http://www.bohemiancoding.com/sketch -->
    <title>Fill 1</title>
    <desc>Created with Sketch.</desc>
    <defs></defs>
    <g id="Boostrap3-grid-system-layouts" stroke="none" stroke-width="1" fill="none" fill-rule="evenodd">
        <g id="Presentation" transform="translate(-477.000000, -4395.000000)" fill="#FFFFFF">
            <g id="content" transform="translate(333.000000, 4248.000000)">
                <g id="1" transform="translate(0.000000, 96.500000)">
                    <g id="icon" transform="translate(93.000000, 0.000000)">
                        <path d="M126.5391,92.355 C124.6861,90.503 121.9341,90.139 119.7011,91.214 L108.1341,79.648 L109.5681,78.213 C110.3501,77.432 110.3501,76.166 109.5681,75.385 L103.9121,69.728 C103.1311,68.947 101.8641,68.947 101.0831,69.728 L99.6481,71.163 L88.0811,59.596 C89.1571,57.362 88.7931,54.61 86.9411,52.757 C84.5981,50.414 80.7991,50.414 78.4561,52.757 C76.1121,55.101 76.1121,58.899 78.4561,61.243 C80.2921,63.08 83.0161,63.455 85.2401,62.412 L90.8371,68.01 C88.1831,67.24 85.3791,66.82 82.4761,66.82 C74.3051,66.82 66.9011,70.091 61.4901,75.39 L60.0711,73.971 C59.2901,73.189 58.0231,73.189 57.2431,73.971 L51.5851,79.627 C50.8051,80.409 50.8051,81.675 51.5851,82.456 L57.2431,88.113 C58.0231,88.894 59.2901,88.894 60.0711,88.113 L65.7281,82.456 C66.5091,81.675 66.5091,80.409 65.7281,79.627 L64.3191,78.218 C69.0051,73.643 75.4101,70.82 82.4761,70.82 C87.4821,70.82 92.1551,72.238 96.1221,74.688 L95.4261,75.385 C94.6451,76.166 94.6451,77.432 95.4261,78.213 L101.0831,83.87 C101.8641,84.651 103.1311,84.651 103.9121,83.87 L104.6071,83.174 C107.0591,87.141 108.4771,91.814 108.4771,96.82 C108.4771,103.886 105.6531,110.291 101.0781,114.977 L99.6691,113.568 C98.8881,112.788 97.6211,112.788 96.8401,113.568 L91.1841,119.226 C90.4031,120.006 90.4031,121.273 91.1841,122.054 L96.8401,127.71 C97.6211,128.492 98.8881,128.492 99.6691,127.71 L105.3261,122.054 C106.1071,121.273 106.1071,120.006 105.3261,119.226 L103.9061,117.806 C109.2061,112.396 112.4761,104.991 112.4761,96.82 C112.4761,93.917 112.0561,91.114 111.2871,88.459 L116.8851,94.057 C115.8421,96.281 116.2171,99.004 118.0541,100.841 C120.3961,103.184 124.1951,103.184 126.5391,100.841 C128.8831,98.498 128.8831,94.699 126.5391,92.355" id="Fill-1"></path>
                    </g>
                </g>
            </g>
        </g>
    </g>
</svg>